<?xml version="1.0" encoding="utf-8" standalone="no"?>
<!DOCTYPE svg PUBLIC "-//W3C//DTD SVG 1.1//EN"
  "http://www.w3.org/Graphics/SVG/1.1/DTD/svg11.dtd">
<svg xmlns:xlink="http://www.w3.org/1999/xlink" width="576pt" height="432pt" viewBox="0 0 576 432" xmlns="http://www.w3.org/2000/svg" version="1.1">
 <metadata>
  <rdf:RDF xmlns:dc="http://purl.org/dc/elements/1.1/" xmlns:cc="http://creativecommons.org/ns#" xmlns:rdf="http://www.w3.org/1999/02/22-rdf-syntax-ns#">
   <cc:Work>
    <dc:type rdf:resource="http://purl.org/dc/dcmitype/StillImage"/>
    <dc:date>2025-01-31T17:01:45.018137</dc:date>
    <dc:format>image/svg+xml</dc:format>
    <dc:creator>
     <cc:Agent>
      <dc:title>Matplotlib v3.8.4, https://matplotlib.org/</dc:title>
     </cc:Agent>
    </dc:creator>
   </cc:Work>
  </rdf:RDF>
 </metadata>
 <defs>
  <style type="text/css">*{stroke-linejoin: round; stroke-linecap: butt}</style>
 </defs>
 <g id="figure_1">
  <g id="patch_1">
   <path d="M 0 432 
L 576 432 
L 576 0 
L 0 0 
z
" style="fill: #ffffff"/>
  </g>
  <g id="axes_1">
   <g id="patch_2">
    <path d="M 72 384.48 
L 518.4 384.48 
L 518.4 51.84 
L 72 51.84 
z
" style="fill: #ffffff"/>
   </g>
   <g id="matplotlib.axis_1">
    <g id="xtick_1">
     <g id="line2d_1">
      <defs>
       <path id="m710e3fc5a9" d="M 0 0 
L 0 3.5 
" style="stroke: #262626; stroke-width: 0.8"/>
      </defs>
      <g>
       <use xlink:href="#m710e3fc5a9" x="103.885714" y="384.48" style="fill: #262626; stroke: #262626; stroke-width: 0.8"/>
      </g>
     </g>
     <g id="text_1">
      <text style="fill: #262626; font: 10px 'Arial', 'DejaVu Sans', 'Liberation Sans', 'Bitstream Vera Sans', sans-serif; text-anchor: middle" x="103.885714" y="398.637812" transform="rotate(-0 103.885714 398.637812)">scvelo</text>
     </g>
    </g>
    <g id="xtick_2">
     <g id="line2d_2">
      <g>
       <use xlink:href="#m710e3fc5a9" x="167.657143" y="384.48" style="fill: #262626; stroke: #262626; stroke-width: 0.8"/>
      </g>
     </g>
     <g id="text_2">
      <text style="fill: #262626; font: 10px 'Arial', 'DejaVu Sans', 'Liberation Sans', 'Bitstream Vera Sans', sans-serif; text-anchor: middle" x="167.657143" y="398.637812" transform="rotate(-0 167.657143 398.637812)">velovi</text>
     </g>
    </g>
    <g id="xtick_3">
     <g id="line2d_3">
      <g>
       <use xlink:href="#m710e3fc5a9" x="231.428571" y="384.48" style="fill: #262626; stroke: #262626; stroke-width: 0.8"/>
      </g>
     </g>
     <g id="text_3">
      <text style="fill: #262626; font: 10px 'Arial', 'DejaVu Sans', 'Liberation Sans', 'Bitstream Vera Sans', sans-serif; text-anchor: middle" x="231.428571" y="398.637812" transform="rotate(-0 231.428571 398.637812)">unitvelo</text>
     </g>
    </g>
    <g id="xtick_4">
     <g id="line2d_4">
      <g>
       <use xlink:href="#m710e3fc5a9" x="295.2" y="384.48" style="fill: #262626; stroke: #262626; stroke-width: 0.8"/>
      </g>
     </g>
     <g id="text_4">
      <text style="fill: #262626; font: 10px 'Arial', 'DejaVu Sans', 'Liberation Sans', 'Bitstream Vera Sans', sans-serif; text-anchor: middle" x="295.2" y="398.637812" transform="rotate(-0 295.2 398.637812)">velovae</text>
     </g>
    </g>
    <g id="xtick_5">
     <g id="line2d_5">
      <g>
       <use xlink:href="#m710e3fc5a9" x="358.971429" y="384.48" style="fill: #262626; stroke: #262626; stroke-width: 0.8"/>
      </g>
     </g>
     <g id="text_5">
      <text style="fill: #262626; font: 10px 'Arial', 'DejaVu Sans', 'Liberation Sans', 'Bitstream Vera Sans', sans-serif; text-anchor: middle" x="358.971429" y="398.637812" transform="rotate(-0 358.971429 398.637812)">deepvelo_cui</text>
     </g>
    </g>
    <g id="xtick_6">
     <g id="line2d_6">
      <g>
       <use xlink:href="#m710e3fc5a9" x="422.742857" y="384.48" style="fill: #262626; stroke: #262626; stroke-width: 0.8"/>
      </g>
     </g>
     <g id="text_6">
      <text style="fill: #262626; font: 10px 'Arial', 'DejaVu Sans', 'Liberation Sans', 'Bitstream Vera Sans', sans-serif; text-anchor: middle" x="422.742857" y="398.637812" transform="rotate(-0 422.742857 398.637812)">stt</text>
     </g>
    </g>
    <g id="xtick_7">
     <g id="line2d_7">
      <g>
       <use xlink:href="#m710e3fc5a9" x="486.514286" y="384.48" style="fill: #262626; stroke: #262626; stroke-width: 0.8"/>
      </g>
     </g>
     <g id="text_7">
      <text style="fill: #262626; font: 10px 'Arial', 'DejaVu Sans', 'Liberation Sans', 'Bitstream Vera Sans', sans-serif; text-anchor: middle" x="486.514286" y="398.637812" transform="rotate(-0 486.514286 398.637812)">stt_vj</text>
     </g>
    </g>
    <g id="text_8">
     <text style="fill: #262626; font: 10px 'Arial', 'DejaVu Sans', 'Liberation Sans', 'Bitstream Vera Sans', sans-serif; text-anchor: middle" x="295.2" y="411.900312" transform="rotate(-0 295.2 411.900312)">model</text>
    </g>
   </g>
   <g id="matplotlib.axis_2">
    <g id="ytick_1">
     <g id="line2d_8">
      <defs>
       <path id="m3d34f52e1a" d="M 0 0 
L -3.5 0 
" style="stroke: #262626; stroke-width: 0.8"/>
      </defs>
      <g>
       <use xlink:href="#m3d34f52e1a" x="72" y="384.48" style="fill: #262626; stroke: #262626; stroke-width: 0.8"/>
      </g>
     </g>
     <g id="text_9">
      <text style="fill: #262626; font: 10px 'Arial', 'DejaVu Sans', 'Liberation Sans', 'Bitstream Vera Sans', sans-serif; text-anchor: end" x="65" y="388.058906" transform="rotate(-0 65 388.058906)">0.0</text>
     </g>
    </g>
    <g id="ytick_2">
     <g id="line2d_9">
      <g>
       <use xlink:href="#m3d34f52e1a" x="72" y="329.04" style="fill: #262626; stroke: #262626; stroke-width: 0.8"/>
      </g>
     </g>
     <g id="text_10">
      <text style="fill: #262626; font: 10px 'Arial', 'DejaVu Sans', 'Liberation Sans', 'Bitstream Vera Sans', sans-serif; text-anchor: end" x="65" y="332.618906" transform="rotate(-0 65 332.618906)">0.2</text>
     </g>
    </g>
    <g id="ytick_3">
     <g id="line2d_10">
      <g>
       <use xlink:href="#m3d34f52e1a" x="72" y="273.6" style="fill: #262626; stroke: #262626; stroke-width: 0.8"/>
      </g>
     </g>
     <g id="text_11">
      <text style="fill: #262626; font: 10px 'Arial', 'DejaVu Sans', 'Liberation Sans', 'Bitstream Vera Sans', sans-serif; text-anchor: end" x="65" y="277.178906" transform="rotate(-0 65 277.178906)">0.4</text>
     </g>
    </g>
    <g id="ytick_4">
     <g id="line2d_11">
      <g>
       <use xlink:href="#m3d34f52e1a" x="72" y="218.16" style="fill: #262626; stroke: #262626; stroke-width: 0.8"/>
      </g>
     </g>
     <g id="text_12">
      <text style="fill: #262626; font: 10px 'Arial', 'DejaVu Sans', 'Liberation Sans', 'Bitstream Vera Sans', sans-serif; text-anchor: end" x="65" y="221.738906" transform="rotate(-0 65 221.738906)">0.6</text>
     </g>
    </g>
    <g id="ytick_5">
     <g id="line2d_12">
      <g>
       <use xlink:href="#m3d34f52e1a" x="72" y="162.72" style="fill: #262626; stroke: #262626; stroke-width: 0.8"/>
      </g>
     </g>
     <g id="text_13">
      <text style="fill: #262626; font: 10px 'Arial', 'DejaVu Sans', 'Liberation Sans', 'Bitstream Vera Sans', sans-serif; text-anchor: end" x="65" y="166.298906" transform="rotate(-0 65 166.298906)">0.8</text>
     </g>
    </g>
    <g id="ytick_6">
     <g id="line2d_13">
      <g>
       <use xlink:href="#m3d34f52e1a" x="72" y="107.28" style="fill: #262626; stroke: #262626; stroke-width: 0.8"/>
      </g>
     </g>
     <g id="text_14">
      <text style="fill: #262626; font: 10px 'Arial', 'DejaVu Sans', 'Liberation Sans', 'Bitstream Vera Sans', sans-serif; text-anchor: end" x="65" y="110.858906" transform="rotate(-0 65 110.858906)">1.0</text>
     </g>
    </g>
    <g id="ytick_7">
     <g id="line2d_14">
      <g>
       <use xlink:href="#m3d34f52e1a" x="72" y="51.84" style="fill: #262626; stroke: #262626; stroke-width: 0.8"/>
      </g>
     </g>
     <g id="text_15">
      <text style="fill: #262626; font: 10px 'Arial', 'DejaVu Sans', 'Liberation Sans', 'Bitstream Vera Sans', sans-serif; text-anchor: end" x="65" y="55.418906" transform="rotate(-0 65 55.418906)">1.2</text>
     </g>
    </g>
    <g id="text_16">
     <text style="fill: #262626; font: 10px 'Arial', 'DejaVu Sans', 'Liberation Sans', 'Bitstream Vera Sans', sans-serif; text-anchor: middle" x="45.1125" y="218.16" transform="rotate(-90 45.1125 218.16)">inner_cluster_coh</text>
    </g>
   </g>
   <g id="PolyCollection_1">
    <defs>
     <path id="m34b9f35b51" d="M 103.933368 -160.789848 
L 103.83806 -160.789848 
L 103.811161 -162.599351 
L 103.775497 -164.408854 
L 103.73174 -166.218357 
L 103.68245 -168.02786 
L 103.63215 -169.837363 
L 103.58681 -171.646866 
L 103.552756 -173.456369 
L 103.535234 -175.265872 
L 103.537095 -177.075375 
L 103.55803 -178.884878 
L 103.59466 -180.694381 
L 103.641422 -182.503883 
L 103.691954 -184.313386 
L 103.740484 -186.122889 
L 103.782828 -187.932392 
L 103.816775 -189.741895 
L 103.841893 -191.551398 
L 103.858954 -193.360901 
L 103.869207 -195.170404 
L 103.873686 -196.979907 
L 103.872607 -198.78941 
L 103.86487 -200.598913 
L 103.847636 -202.408416 
L 103.816018 -204.217918 
L 103.763027 -206.027421 
L 103.679994 -207.836924 
L 103.557636 -209.646427 
L 103.387832 -211.45593 
L 103.165824 -213.265433 
L 102.892244 -215.074936 
L 102.574166 -216.884439 
L 102.224482 -218.693942 
L 101.859413 -220.503445 
L 101.494705 -222.312948 
L 101.141709 -224.122451 
L 100.804714 -225.931953 
L 100.480417 -227.741456 
L 100.159428 -229.550959 
L 99.828654 -231.360462 
L 99.472977 -233.169965 
L 99.075068 -234.979468 
L 98.613373 -236.788971 
L 98.059753 -238.598474 
L 97.379021 -240.407977 
L 96.532284 -242.21748 
L 95.484519 -244.026983 
L 94.214718 -245.836486 
L 92.725343 -247.645988 
L 91.047477 -249.455491 
L 89.239324 -251.264994 
L 87.37808 -253.074497 
L 85.547713 -254.884 
L 83.826613 -256.693503 
L 82.278892 -258.503006 
L 80.951402 -260.312509 
L 79.87618 -262.122012 
L 79.076054 -263.931515 
L 78.570233 -265.741018 
L 78.377143 -267.550521 
L 78.513122 -269.360023 
L 78.987357 -271.169526 
L 79.794969 -272.979029 
L 80.910944 -274.788532 
L 82.287431 -276.598035 
L 83.855758 -278.407538 
L 85.532926 -280.217041 
L 87.23091 -282.026544 
L 88.866473 -283.836047 
L 90.369555 -285.64555 
L 91.689256 -287.455053 
L 92.797374 -289.264556 
L 93.689846 -291.074058 
L 94.386206 -292.883561 
L 94.926725 -294.693064 
L 95.366797 -296.502567 
L 95.768558 -298.31207 
L 96.190678 -300.121573 
L 96.678144 -301.931076 
L 97.2543 -303.740579 
L 97.917083 -305.550082 
L 98.640456 -307.359585 
L 99.380802 -309.169088 
L 100.086848 -310.978591 
L 100.710901 -312.788093 
L 101.218909 -314.597596 
L 101.597124 -316.407099 
L 101.853928 -318.216602 
L 102.016489 -320.026105 
L 102.123192 -321.835608 
L 102.213924 -323.645111 
L 102.320878 -325.454614 
L 102.462348 -327.264117 
L 102.640955 -329.07362 
L 102.846264 -330.883123 
L 103.060337 -332.692626 
L 103.264074 -334.502128 
L 103.442294 -336.311631 
L 103.586423 -338.121134 
L 103.694665 -339.930637 
L 104.076764 -339.930637 
L 104.076764 -339.930637 
L 104.185006 -338.121134 
L 104.329135 -336.311631 
L 104.507355 -334.502128 
L 104.711091 -332.692626 
L 104.925165 -330.883123 
L 105.130473 -329.07362 
L 105.309081 -327.264117 
L 105.450551 -325.454614 
L 105.557505 -323.645111 
L 105.648236 -321.835608 
L 105.754939 -320.026105 
L 105.9175 -318.216602 
L 106.174305 -316.407099 
L 106.55252 -314.597596 
L 107.060527 -312.788093 
L 107.68458 -310.978591 
L 108.390626 -309.169088 
L 109.130973 -307.359585 
L 109.854346 -305.550082 
L 110.517128 -303.740579 
L 111.093284 -301.931076 
L 111.58075 -300.121573 
L 112.00287 -298.31207 
L 112.404632 -296.502567 
L 112.844704 -294.693064 
L 113.385223 -292.883561 
L 114.081582 -291.074058 
L 114.974055 -289.264556 
L 116.082173 -287.455053 
L 117.401873 -285.64555 
L 118.904956 -283.836047 
L 120.540519 -282.026544 
L 122.238503 -280.217041 
L 123.915671 -278.407538 
L 125.483998 -276.598035 
L 126.860485 -274.788532 
L 127.97646 -272.979029 
L 128.784071 -271.169526 
L 129.258307 -269.360023 
L 129.394286 -267.550521 
L 129.201195 -265.741018 
L 128.695374 -263.931515 
L 127.895248 -262.122012 
L 126.820027 -260.312509 
L 125.492536 -258.503006 
L 123.944816 -256.693503 
L 122.223716 -254.884 
L 120.393348 -253.074497 
L 118.532104 -251.264994 
L 116.723951 -249.455491 
L 115.046086 -247.645988 
L 113.556711 -245.836486 
L 112.28691 -244.026983 
L 111.239145 -242.21748 
L 110.392408 -240.407977 
L 109.711675 -238.598474 
L 109.158056 -236.788971 
L 108.696361 -234.979468 
L 108.298452 -233.169965 
L 107.942775 -231.360462 
L 107.612 -229.550959 
L 107.291011 -227.741456 
L 106.966715 -225.931953 
L 106.62972 -224.122451 
L 106.276724 -222.312948 
L 105.912016 -220.503445 
L 105.546946 -218.693942 
L 105.197262 -216.884439 
L 104.879185 -215.074936 
L 104.605605 -213.265433 
L 104.383596 -211.45593 
L 104.213792 -209.646427 
L 104.091434 -207.836924 
L 104.008401 -206.027421 
L 103.955411 -204.217918 
L 103.923792 -202.408416 
L 103.906558 -200.598913 
L 103.898822 -198.78941 
L 103.897743 -196.979907 
L 103.902221 -195.170404 
L 103.912475 -193.360901 
L 103.929536 -191.551398 
L 103.954654 -189.741895 
L 103.9886 -187.932392 
L 104.030945 -186.122889 
L 104.079475 -184.313386 
L 104.130006 -182.503883 
L 104.176769 -180.694381 
L 104.213398 -178.884878 
L 104.234334 -177.075375 
L 104.236194 -175.265872 
L 104.218673 -173.456369 
L 104.184618 -171.646866 
L 104.139279 -169.837363 
L 104.088978 -168.02786 
L 104.039688 -166.218357 
L 103.995932 -164.408854 
L 103.960268 -162.599351 
L 103.933368 -160.789848 
z
" style="stroke: #3d3d3d; stroke-width: 1.25"/>
    </defs>
    <g clip-path="url(#paca20e5946)">
     <use xlink:href="#m34b9f35b51" x="0" y="432" style="fill: #3274a1; stroke: #3d3d3d; stroke-width: 1.25"/>
    </g>
   </g>
   <g id="PolyCollection_2">
    <defs>
     <path id="m940a49ed93" d="M 167.709993 -194.982333 
L 167.604293 -194.982333 
L 167.579438 -196.446772 
L 167.546633 -197.91121 
L 167.505015 -199.375648 
L 167.45425 -200.840086 
L 167.394677 -202.304524 
L 167.327333 -203.768962 
L 167.253806 -205.233401 
L 167.175898 -206.697839 
L 167.09512 -208.162277 
L 167.01208 -209.626715 
L 166.925871 -211.091153 
L 166.83361 -212.555591 
L 166.730238 -214.02003 
L 166.608681 -215.484468 
L 166.460391 -216.948906 
L 166.276186 -218.413344 
L 166.047223 -219.877782 
L 165.76588 -221.34222 
L 165.426289 -222.806658 
L 165.024333 -224.271097 
L 164.557051 -225.735535 
L 164.021543 -227.199973 
L 163.413635 -228.664411 
L 162.726691 -230.128849 
L 161.950986 -231.593287 
L 161.073984 -233.057726 
L 160.081702 -234.522164 
L 158.961136 -235.986602 
L 157.703466 -237.45104 
L 156.307566 -238.915478 
L 154.783196 -240.379916 
L 153.153262 -241.844355 
L 151.454573 -243.308793 
L 149.736774 -244.773231 
L 148.059407 -246.237669 
L 146.487359 -247.702107 
L 145.085271 -249.166545 
L 143.911626 -250.630983 
L 143.013319 -252.095422 
L 142.421412 -253.55986 
L 142.148571 -255.024298 
L 142.188474 -256.488736 
L 142.51722 -257.953174 
L 143.096582 -259.417612 
L 143.878705 -260.882051 
L 144.811695 -262.346489 
L 145.845326 -263.810927 
L 146.935973 -265.275365 
L 148.049915 -266.739803 
L 149.164377 -268.204241 
L 150.266123 -269.66868 
L 151.348005 -271.133118 
L 152.404431 -272.597556 
L 153.427003 -274.061994 
L 154.401625 -275.526432 
L 155.30793 -276.99087 
L 156.121281 -278.455309 
L 156.816864 -279.919747 
L 157.374814 -281.384185 
L 157.78508 -282.848623 
L 158.05079 -284.313061 
L 158.189313 -285.777499 
L 158.230784 -287.241937 
L 158.214448 -288.706376 
L 158.183624 -290.170814 
L 158.180335 -291.635252 
L 158.240559 -293.09969 
L 158.390852 -294.564128 
L 158.646675 -296.028566 
L 159.012362 -297.493005 
L 159.482366 -298.957443 
L 160.043222 -300.421881 
L 160.675724 -301.886319 
L 161.356903 -303.350757 
L 162.061676 -304.815195 
L 162.764201 -306.279634 
L 163.439129 -307.744072 
L 164.062934 -309.20851 
L 164.615433 -310.672948 
L 165.081408 -312.137386 
L 165.452141 -313.601824 
L 165.726514 -315.066263 
L 165.911359 -316.530701 
L 166.02082 -317.995139 
L 166.074687 -319.459577 
L 166.095846 -320.924015 
L 166.107251 -322.388453 
L 166.128912 -323.852891 
L 166.175454 -325.31733 
L 166.25468 -326.781768 
L 166.367354 -328.246206 
L 166.508177 -329.710644 
L 166.667632 -331.175082 
L 166.834258 -332.63952 
L 166.996843 -334.103959 
L 167.146134 -335.568397 
L 167.275832 -337.032835 
L 167.382849 -338.497273 
L 167.46695 -339.961711 
L 167.847336 -339.961711 
L 167.847336 -339.961711 
L 167.931437 -338.497273 
L 168.038453 -337.032835 
L 168.168152 -335.568397 
L 168.317442 -334.103959 
L 168.480027 -332.63952 
L 168.646654 -331.175082 
L 168.806109 -329.710644 
L 168.946932 -328.246206 
L 169.059606 -326.781768 
L 169.138831 -325.31733 
L 169.185374 -323.852891 
L 169.207035 -322.388453 
L 169.21844 -320.924015 
L 169.239599 -319.459577 
L 169.293465 -317.995139 
L 169.402927 -316.530701 
L 169.587771 -315.066263 
L 169.862145 -313.601824 
L 170.232878 -312.137386 
L 170.698853 -310.672948 
L 171.251351 -309.20851 
L 171.875157 -307.744072 
L 172.550085 -306.279634 
L 173.25261 -304.815195 
L 173.957383 -303.350757 
L 174.638562 -301.886319 
L 175.271064 -300.421881 
L 175.83192 -298.957443 
L 176.301923 -297.493005 
L 176.667611 -296.028566 
L 176.923434 -294.564128 
L 177.073727 -293.09969 
L 177.133951 -291.635252 
L 177.130662 -290.170814 
L 177.099838 -288.706376 
L 177.083501 -287.241937 
L 177.124973 -285.777499 
L 177.263496 -284.313061 
L 177.529206 -282.848623 
L 177.939472 -281.384185 
L 178.497422 -279.919747 
L 179.193004 -278.455309 
L 180.006356 -276.99087 
L 180.912661 -275.526432 
L 181.887283 -274.061994 
L 182.909855 -272.597556 
L 183.96628 -271.133118 
L 185.048163 -269.66868 
L 186.149908 -268.204241 
L 187.264371 -266.739803 
L 188.378313 -265.275365 
L 189.46896 -263.810927 
L 190.50259 -262.346489 
L 191.435581 -260.882051 
L 192.217704 -259.417612 
L 192.797066 -257.953174 
L 193.125812 -256.488736 
L 193.165714 -255.024298 
L 192.892874 -253.55986 
L 192.300967 -252.095422 
L 191.40266 -250.630983 
L 190.229014 -249.166545 
L 188.826926 -247.702107 
L 187.254879 -246.237669 
L 185.577511 -244.773231 
L 183.859712 -243.308793 
L 182.161023 -241.844355 
L 180.53109 -240.379916 
L 179.00672 -238.915478 
L 177.61082 -237.45104 
L 176.35315 -235.986602 
L 175.232584 -234.522164 
L 174.240301 -233.057726 
L 173.363299 -231.593287 
L 172.587595 -230.128849 
L 171.900651 -228.664411 
L 171.292743 -227.199973 
L 170.757235 -225.735535 
L 170.289953 -224.271097 
L 169.887996 -222.806658 
L 169.548405 -221.34222 
L 169.267063 -219.877782 
L 169.0381 -218.413344 
L 168.853894 -216.948906 
L 168.705604 -215.484468 
L 168.584048 -214.02003 
L 168.480676 -212.555591 
L 168.388415 -211.091153 
L 168.302206 -209.626715 
L 168.219165 -208.162277 
L 168.138388 -206.697839 
L 168.06048 -205.233401 
L 167.986953 -203.768962 
L 167.919609 -202.304524 
L 167.860036 -200.840086 
L 167.809271 -199.375648 
L 167.767653 -197.91121 
L 167.734848 -196.446772 
L 167.709993 -194.982333 
z
" style="stroke: #3d3d3d; stroke-width: 1.25"/>
    </defs>
    <g clip-path="url(#paca20e5946)">
     <use xlink:href="#m940a49ed93" x="0" y="432" style="fill: #e1812c; stroke: #3d3d3d; stroke-width: 1.25"/>
    </g>
   </g>
   <g id="PolyCollection_3">
    <defs>
     <path id="mbec1ef6e24" d="M 231.472537 -128.570429 
L 231.384606 -128.570429 
L 231.358914 -130.739078 
L 231.32401 -132.907727 
L 231.279851 -135.076376 
L 231.228112 -137.245024 
L 231.172447 -139.413673 
L 231.118232 -141.582322 
L 231.0717 -143.750971 
L 231.038596 -145.91962 
L 231.022722 -148.088268 
L 231.024857 -150.256917 
L 231.04246 -152.425566 
L 231.070335 -154.594215 
L 231.102064 -156.762863 
L 231.131764 -158.931512 
L 231.155575 -161.100161 
L 231.172424 -163.26881 
L 231.183882 -165.437459 
L 231.193229 -167.606107 
L 231.204136 -169.774756 
L 231.219415 -171.943405 
L 231.240239 -174.112054 
L 231.26599 -176.280703 
L 231.294677 -178.449351 
L 231.323681 -180.618 
L 231.350507 -182.786649 
L 231.373326 -184.955298 
L 231.391171 -187.123947 
L 231.403836 -189.292595 
L 231.411569 -191.461244 
L 231.41471 -193.629893 
L 231.413391 -195.798542 
L 231.407364 -197.967191 
L 231.395977 -200.135839 
L 231.378319 -202.304488 
L 231.353462 -204.473137 
L 231.320773 -206.641786 
L 231.280199 -208.810435 
L 231.232476 -210.979083 
L 231.179212 -213.147732 
L 231.122871 -215.316381 
L 231.066677 -217.48503 
L 231.014469 -219.653679 
L 230.970487 -221.822327 
L 230.938999 -223.990976 
L 230.923743 -226.159625 
L 230.927193 -228.328274 
L 230.949834 -230.496923 
L 230.989695 -232.665571 
L 231.042367 -234.83422 
L 231.101604 -237.002869 
L 231.160366 -239.171518 
L 231.212036 -241.340167 
L 231.251483 -243.508815 
L 231.275727 -245.677464 
L 231.284106 -247.846113 
L 231.277956 -250.014762 
L 231.259871 -252.183411 
L 231.232654 -254.352059 
L 231.198084 -256.520708 
L 231.155738 -258.689357 
L 231.102155 -260.858006 
L 231.030695 -263.026655 
L 230.932319 -265.195303 
L 230.797279 -267.363952 
L 230.617378 -269.532601 
L 230.388147 -271.70125 
L 230.110229 -273.869899 
L 229.789337 -276.038547 
L 229.43464 -278.207196 
L 229.055825 -280.375845 
L 228.659576 -282.544494 
L 228.246254 -284.713142 
L 227.807464 -286.881791 
L 227.32477 -289.05044 
L 226.769502 -291.219089 
L 226.10343 -293.387738 
L 225.280279 -295.556386 
L 224.248561 -297.725035 
L 222.956704 -299.893684 
L 221.361812 -302.062333 
L 219.442882 -304.230982 
L 217.217885 -306.39963 
L 214.761528 -308.568279 
L 212.217779 -310.736928 
L 209.799586 -312.905577 
L 207.769532 -315.074226 
L 206.400116 -317.242874 
L 205.92 -319.411523 
L 206.459918 -321.580172 
L 208.015195 -323.748821 
L 210.438496 -325.91747 
L 213.467015 -328.086118 
L 216.776614 -330.254767 
L 220.046426 -332.423416 
L 223.015126 -334.592065 
L 225.514864 -336.760714 
L 227.478071 -338.929362 
L 228.921515 -341.098011 
L 229.917644 -343.26666 
L 232.939499 -343.26666 
L 232.939499 -343.26666 
L 233.935628 -341.098011 
L 235.379071 -338.929362 
L 237.342279 -336.760714 
L 239.842017 -334.592065 
L 242.810717 -332.423416 
L 246.080529 -330.254767 
L 249.390128 -328.086118 
L 252.418647 -325.91747 
L 254.841948 -323.748821 
L 256.397225 -321.580172 
L 256.937143 -319.411523 
L 256.457027 -317.242874 
L 255.087611 -315.074226 
L 253.057557 -312.905577 
L 250.639364 -310.736928 
L 248.095615 -308.568279 
L 245.639258 -306.39963 
L 243.414261 -304.230982 
L 241.495331 -302.062333 
L 239.900438 -299.893684 
L 238.608582 -297.725035 
L 237.576864 -295.556386 
L 236.753713 -293.387738 
L 236.087641 -291.219089 
L 235.532373 -289.05044 
L 235.049679 -286.881791 
L 234.610889 -284.713142 
L 234.197567 -282.544494 
L 233.801318 -280.375845 
L 233.422503 -278.207196 
L 233.067805 -276.038547 
L 232.746914 -273.869899 
L 232.468996 -271.70125 
L 232.239765 -269.532601 
L 232.059864 -267.363952 
L 231.924824 -265.195303 
L 231.826448 -263.026655 
L 231.754988 -260.858006 
L 231.701405 -258.689357 
L 231.659059 -256.520708 
L 231.624489 -254.352059 
L 231.597272 -252.183411 
L 231.579187 -250.014762 
L 231.573037 -247.846113 
L 231.581416 -245.677464 
L 231.60566 -243.508815 
L 231.645107 -241.340167 
L 231.696777 -239.171518 
L 231.755539 -237.002869 
L 231.814776 -234.83422 
L 231.867448 -232.665571 
L 231.907309 -230.496923 
L 231.92995 -228.328274 
L 231.9334 -226.159625 
L 231.918143 -223.990976 
L 231.886656 -221.822327 
L 231.842674 -219.653679 
L 231.790466 -217.48503 
L 231.734272 -215.316381 
L 231.677931 -213.147732 
L 231.624667 -210.979083 
L 231.576944 -208.810435 
L 231.53637 -206.641786 
L 231.503681 -204.473137 
L 231.478824 -202.304488 
L 231.461165 -200.135839 
L 231.449779 -197.967191 
L 231.443751 -195.798542 
L 231.442433 -193.629893 
L 231.445574 -191.461244 
L 231.453306 -189.292595 
L 231.465972 -187.123947 
L 231.483817 -184.955298 
L 231.506636 -182.786649 
L 231.533462 -180.618 
L 231.562466 -178.449351 
L 231.591153 -176.280703 
L 231.616904 -174.112054 
L 231.637728 -171.943405 
L 231.653007 -169.774756 
L 231.663914 -167.606107 
L 231.673261 -165.437459 
L 231.684719 -163.26881 
L 231.701568 -161.100161 
L 231.725378 -158.931512 
L 231.755079 -156.762863 
L 231.786808 -154.594215 
L 231.814683 -152.425566 
L 231.832286 -150.256917 
L 231.83442 -148.088268 
L 231.818547 -145.91962 
L 231.785443 -143.750971 
L 231.738911 -141.582322 
L 231.684696 -139.413673 
L 231.62903 -137.245024 
L 231.577292 -135.076376 
L 231.533133 -132.907727 
L 231.498229 -130.739078 
L 231.472537 -128.570429 
z
" style="stroke: #3d3d3d; stroke-width: 1.25"/>
    </defs>
    <g clip-path="url(#paca20e5946)">
     <use xlink:href="#mbec1ef6e24" x="0" y="432" style="fill: #9372b2; stroke: #3d3d3d; stroke-width: 1.25"/>
    </g>
   </g>
   <g id="PolyCollection_4">
    <defs>
     <path id="m4c79a3e80c" d="M 295.239439 -72.342269 
L 295.160561 -72.342269 
L 295.141681 -75.16842 
L 295.117351 -77.994572 
L 295.087744 -80.820724 
L 295.053867 -83.646876 
L 295.017665 -86.473027 
L 294.981914 -89.299179 
L 294.949906 -92.125331 
L 294.924923 -94.951483 
L 294.909613 -97.777634 
L 294.905417 -100.603786 
L 294.91217 -103.429938 
L 294.928026 -106.25609 
L 294.949701 -109.082241 
L 294.973015 -111.908393 
L 294.993613 -114.734545 
L 295.007708 -117.560697 
L 295.012723 -120.386848 
L 295.007711 -123.213 
L 294.993495 -126.039152 
L 294.972495 -128.865304 
L 294.948267 -131.691455 
L 294.924806 -134.517607 
L 294.905722 -137.343759 
L 294.893436 -140.169911 
L 294.888533 -142.996062 
L 294.889411 -145.822214 
L 294.892298 -148.648366 
L 294.891631 -151.474518 
L 294.880711 -154.300669 
L 294.852522 -157.126821 
L 294.800592 -159.952973 
L 294.719775 -162.779125 
L 294.606926 -165.605276 
L 294.461407 -168.431428 
L 294.285375 -171.25758 
L 294.083798 -174.083732 
L 293.864062 -176.909883 
L 293.635117 -179.736035 
L 293.406135 -182.562187 
L 293.184851 -185.388339 
L 292.975896 -188.21449 
L 292.77957 -191.040642 
L 292.591464 -193.866794 
L 292.403213 -196.692946 
L 292.204314 -199.519097 
L 291.984652 -202.345249 
L 291.737124 -205.171401 
L 291.459651 -207.997553 
L 291.156063 -210.823704 
L 290.835587 -213.649856 
L 290.511052 -216.476008 
L 290.196229 -219.30216 
L 289.902884 -222.128311 
L 289.638175 -224.954463 
L 289.402929 -227.780615 
L 289.191139 -230.606767 
L 288.9908 -233.432918 
L 288.785939 -236.25907 
L 288.559459 -239.085222 
L 288.296198 -241.911374 
L 287.985524 -244.737525 
L 287.622835 -247.563677 
L 287.209521 -250.389829 
L 286.751301 -253.215981 
L 286.25524 -256.042132 
L 285.726095 -258.868284 
L 285.162872 -261.694436 
L 284.556498 -264.520588 
L 283.889323 -267.346739 
L 283.136831 -270.172891 
L 282.271504 -272.999043 
L 281.268402 -275.825195 
L 280.111671 -278.651346 
L 278.800997 -281.477498 
L 277.356963 -284.30365 
L 275.824317 -287.129802 
L 274.272311 -289.955953 
L 272.791599 -292.782105 
L 271.487579 -295.608257 
L 270.470589 -298.434409 
L 269.843961 -301.26056 
L 269.691429 -304.086712 
L 270.06575 -306.912864 
L 270.980427 -309.739016 
L 272.406081 -312.565167 
L 274.272327 -315.391319 
L 276.475076 -318.217471 
L 278.888202 -321.043623 
L 281.377715 -323.869774 
L 283.816158 -326.695926 
L 286.095003 -329.522078 
L 288.133298 -332.34823 
L 289.881674 -335.174381 
L 291.321713 -338.000533 
L 292.46153 -340.826685 
L 293.32895 -343.652837 
L 293.963795 -346.478988 
L 294.410681 -349.30514 
L 294.713241 -352.131292 
L 295.686759 -352.131292 
L 295.686759 -352.131292 
L 295.989319 -349.30514 
L 296.436205 -346.478988 
L 297.07105 -343.652837 
L 297.93847 -340.826685 
L 299.078287 -338.000533 
L 300.518326 -335.174381 
L 302.266702 -332.34823 
L 304.304997 -329.522078 
L 306.583842 -326.695926 
L 309.022285 -323.869774 
L 311.511798 -321.043623 
L 313.924924 -318.217471 
L 316.127673 -315.391319 
L 317.993919 -312.565167 
L 319.419573 -309.739016 
L 320.33425 -306.912864 
L 320.708571 -304.086712 
L 320.556039 -301.26056 
L 319.929411 -298.434409 
L 318.912421 -295.608257 
L 317.608401 -292.782105 
L 316.127689 -289.955953 
L 314.575683 -287.129802 
L 313.043037 -284.30365 
L 311.599003 -281.477498 
L 310.288329 -278.651346 
L 309.131598 -275.825195 
L 308.128496 -272.999043 
L 307.263169 -270.172891 
L 306.510677 -267.346739 
L 305.843502 -264.520588 
L 305.237128 -261.694436 
L 304.673905 -258.868284 
L 304.14476 -256.042132 
L 303.648699 -253.215981 
L 303.190479 -250.389829 
L 302.777165 -247.563677 
L 302.414476 -244.737525 
L 302.103802 -241.911374 
L 301.840541 -239.085222 
L 301.614061 -236.25907 
L 301.4092 -233.432918 
L 301.208861 -230.606767 
L 300.997071 -227.780615 
L 300.761825 -224.954463 
L 300.497116 -222.128311 
L 300.203771 -219.30216 
L 299.888948 -216.476008 
L 299.564413 -213.649856 
L 299.243937 -210.823704 
L 298.940349 -207.997553 
L 298.662876 -205.171401 
L 298.415348 -202.345249 
L 298.195686 -199.519097 
L 297.996787 -196.692946 
L 297.808536 -193.866794 
L 297.62043 -191.040642 
L 297.424104 -188.21449 
L 297.215149 -185.388339 
L 296.993865 -182.562187 
L 296.764883 -179.736035 
L 296.535938 -176.909883 
L 296.316202 -174.083732 
L 296.114625 -171.25758 
L 295.938593 -168.431428 
L 295.793074 -165.605276 
L 295.680225 -162.779125 
L 295.599408 -159.952973 
L 295.547478 -157.126821 
L 295.519289 -154.300669 
L 295.508369 -151.474518 
L 295.507702 -148.648366 
L 295.510589 -145.822214 
L 295.511467 -142.996062 
L 295.506564 -140.169911 
L 295.494278 -137.343759 
L 295.475194 -134.517607 
L 295.451733 -131.691455 
L 295.427505 -128.865304 
L 295.406505 -126.039152 
L 295.392289 -123.213 
L 295.387277 -120.386848 
L 295.392292 -117.560697 
L 295.406387 -114.734545 
L 295.426985 -111.908393 
L 295.450299 -109.082241 
L 295.471974 -106.25609 
L 295.48783 -103.429938 
L 295.494583 -100.603786 
L 295.490387 -97.777634 
L 295.475077 -94.951483 
L 295.450094 -92.125331 
L 295.418086 -89.299179 
L 295.382335 -86.473027 
L 295.346133 -83.646876 
L 295.312256 -80.820724 
L 295.282649 -77.994572 
L 295.258319 -75.16842 
L 295.239439 -72.342269 
z
" style="stroke: #3d3d3d; stroke-width: 1.25"/>
    </defs>
    <g clip-path="url(#paca20e5946)">
     <use xlink:href="#m4c79a3e80c" x="0" y="432" style="fill: #c03d3e; stroke: #3d3d3d; stroke-width: 1.25"/>
    </g>
   </g>
   <g id="PolyCollection_5">
    <defs>
     <path id="m65cca431fe" d="M 359.010592 -192.556612 
L 358.932265 -192.556612 
L 358.904183 -193.990983 
L 358.865374 -195.425355 
L 358.817797 -196.859727 
L 358.767013 -198.294099 
L 358.721608 -199.72847 
L 358.690998 -201.162842 
L 358.682291 -202.597214 
L 358.697607 -204.031585 
L 358.733245 -205.465957 
L 358.781128 -206.900329 
L 358.831776 -208.334701 
L 358.877296 -209.769072 
L 358.913149 -211.203444 
L 358.938287 -212.637816 
L 358.954118 -214.072188 
L 358.963124 -215.506559 
L 358.967769 -216.940931 
L 358.969947 -218.375303 
L 358.970878 -219.809675 
L 358.97124 -221.244046 
L 358.971369 -222.678418 
L 358.971409 -224.11279 
L 358.971415 -225.547162 
L 358.971394 -226.981533 
L 358.971316 -228.415905 
L 358.971079 -229.850277 
L 358.970431 -231.284649 
L 358.968808 -232.71902 
L 358.965084 -234.153392 
L 358.957266 -235.587764 
L 358.942265 -237.022136 
L 358.915994 -238.456507 
L 358.874085 -239.890879 
L 358.813352 -241.325251 
L 358.733737 -242.759622 
L 358.639912 -244.193994 
L 358.541485 -245.628366 
L 358.451081 -247.062738 
L 358.380593 -248.497109 
L 358.337101 -249.931481 
L 358.320401 -251.365853 
L 358.323443 -252.800225 
L 358.33539 -254.234596 
L 358.345576 -255.668968 
L 358.346352 -257.10334 
L 358.33379 -258.537712 
L 358.306686 -259.972083 
L 358.265244 -261.406455 
L 358.210621 -262.840827 
L 358.145642 -264.275199 
L 358.075924 -265.70957 
L 358.010084 -267.143942 
L 357.957934 -268.578314 
L 357.926571 -270.012686 
L 357.915652 -271.447057 
L 357.914077 -272.881429 
L 357.899968 -274.315801 
L 357.844239 -275.750172 
L 357.716157 -277.184544 
L 357.488326 -278.618916 
L 357.139157 -280.053288 
L 356.652444 -281.487659 
L 356.015127 -282.922031 
L 355.214922 -284.356403 
L 354.239018 -285.790775 
L 353.074197 -287.225146 
L 351.708214 -288.659518 
L 350.132579 -290.09389 
L 348.347522 -291.528262 
L 346.369765 -292.962633 
L 344.241728 -294.397005 
L 342.038024 -295.831377 
L 339.863957 -297.265749 
L 337.843587 -298.70012 
L 336.100763 -300.134492 
L 334.741323 -301.568864 
L 333.844152 -303.003236 
L 333.462857 -304.437607 
L 333.632749 -305.871979 
L 334.374744 -307.306351 
L 335.690677 -308.740723 
L 337.550644 -310.175094 
L 339.878452 -311.609466 
L 342.543504 -313.043838 
L 345.36624 -314.478209 
L 348.140199 -315.912581 
L 350.667562 -317.346953 
L 352.798377 -318.781325 
L 354.459858 -320.215696 
L 355.664124 -321.650068 
L 356.491039 -323.08444 
L 357.05345 -324.518812 
L 357.459446 -325.953183 
L 357.786018 -327.387555 
L 358.0713 -328.821927 
L 358.323005 -330.256299 
L 358.5343 -331.69067 
L 358.697896 -333.125042 
L 358.813292 -334.559414 
L 359.129565 -334.559414 
L 359.129565 -334.559414 
L 359.244961 -333.125042 
L 359.408558 -331.69067 
L 359.619852 -330.256299 
L 359.871557 -328.821927 
L 360.156839 -327.387555 
L 360.483411 -325.953183 
L 360.889407 -324.518812 
L 361.451818 -323.08444 
L 362.278733 -321.650068 
L 363.482999 -320.215696 
L 365.14448 -318.781325 
L 367.275295 -317.346953 
L 369.802658 -315.912581 
L 372.576618 -314.478209 
L 375.399354 -313.043838 
L 378.064406 -311.609466 
L 380.392213 -310.175094 
L 382.25218 -308.740723 
L 383.568113 -307.306351 
L 384.310108 -305.871979 
L 384.48 -304.437607 
L 384.098705 -303.003236 
L 383.201534 -301.568864 
L 381.842094 -300.134492 
L 380.09927 -298.70012 
L 378.0789 -297.265749 
L 375.904833 -295.831377 
L 373.701129 -294.397005 
L 371.573092 -292.962633 
L 369.595335 -291.528262 
L 367.810279 -290.09389 
L 366.234643 -288.659518 
L 364.86866 -287.225146 
L 363.703839 -285.790775 
L 362.727935 -284.356403 
L 361.92773 -282.922031 
L 361.290413 -281.487659 
L 360.8037 -280.053288 
L 360.454531 -278.618916 
L 360.2267 -277.184544 
L 360.098618 -275.750172 
L 360.04289 -274.315801 
L 360.02878 -272.881429 
L 360.027205 -271.447057 
L 360.016286 -270.012686 
L 359.984923 -268.578314 
L 359.932773 -267.143942 
L 359.866933 -265.70957 
L 359.797215 -264.275199 
L 359.732236 -262.840827 
L 359.677613 -261.406455 
L 359.636171 -259.972083 
L 359.609068 -258.537712 
L 359.596505 -257.10334 
L 359.597281 -255.668968 
L 359.607468 -254.234596 
L 359.619414 -252.800225 
L 359.622456 -251.365853 
L 359.605756 -249.931481 
L 359.562264 -248.497109 
L 359.491777 -247.062738 
L 359.401372 -245.628366 
L 359.302945 -244.193994 
L 359.20912 -242.759622 
L 359.129505 -241.325251 
L 359.068772 -239.890879 
L 359.026863 -238.456507 
L 359.000592 -237.022136 
L 358.985592 -235.587764 
L 358.977773 -234.153392 
L 358.974049 -232.71902 
L 358.972426 -231.284649 
L 358.971778 -229.850277 
L 358.971542 -228.415905 
L 358.971463 -226.981533 
L 358.971442 -225.547162 
L 358.971448 -224.11279 
L 358.971488 -222.678418 
L 358.971617 -221.244046 
L 358.971979 -219.809675 
L 358.97291 -218.375303 
L 358.975088 -216.940931 
L 358.979733 -215.506559 
L 358.988739 -214.072188 
L 359.00457 -212.637816 
L 359.029708 -211.203444 
L 359.065561 -209.769072 
L 359.111081 -208.334701 
L 359.161729 -206.900329 
L 359.209612 -205.465957 
L 359.24525 -204.031585 
L 359.260566 -202.597214 
L 359.251859 -201.162842 
L 359.221249 -199.72847 
L 359.175844 -198.294099 
L 359.12506 -196.859727 
L 359.077484 -195.425355 
L 359.038674 -193.990983 
L 359.010592 -192.556612 
z
" style="stroke: #3d3d3d; stroke-width: 1.25"/>
    </defs>
    <g clip-path="url(#paca20e5946)">
     <use xlink:href="#m65cca431fe" x="0" y="432" style="fill: #845b53; stroke: #3d3d3d; stroke-width: 1.25"/>
    </g>
   </g>
   <g id="PolyCollection_6">
    <defs>
     <path id="m4f65d9e721" d="M 422.785013 -157.086377 
L 422.700702 -157.086377 
L 422.676268 -158.932918 
L 422.643722 -160.779459 
L 422.60375 -162.626 
L 422.558871 -164.472541 
L 422.513465 -166.319082 
L 422.47319 -168.165623 
L 422.443814 -170.012164 
L 422.429721 -171.858705 
L 422.43259 -173.705246 
L 422.45068 -175.551787 
L 422.479025 -177.398328 
L 422.510485 -179.244869 
L 422.537336 -181.09141 
L 422.552936 -182.937951 
L 422.553071 -184.784492 
L 422.536665 -186.631033 
L 422.505769 -188.477574 
L 422.464842 -190.324115 
L 422.419479 -192.170656 
L 422.374908 -194.017196 
L 422.334637 -195.863737 
L 422.299675 -197.710278 
L 422.268542 -199.556819 
L 422.238022 -201.40336 
L 422.204347 -203.249901 
L 422.164365 -205.096442 
L 422.116345 -206.942983 
L 422.060238 -208.789524 
L 421.997391 -210.636065 
L 421.929761 -212.482606 
L 421.85877 -214.329147 
L 421.784016 -216.175688 
L 421.702307 -218.022229 
L 421.607553 -219.86877 
L 421.491976 -221.715311 
L 421.348535 -223.561852 
L 421.17389 -225.408393 
L 420.970684 -227.254934 
L 420.74802 -229.101475 
L 420.519513 -230.948016 
L 420.299238 -232.794557 
L 420.096752 -234.641098 
L 419.912883 -236.487639 
L 419.737928 -238.33418 
L 419.553285 -240.180721 
L 419.336356 -242.027262 
L 419.067282 -243.873803 
L 418.734924 -245.720343 
L 418.339339 -247.566884 
L 417.888948 -249.413425 
L 417.392697 -251.259966 
L 416.849953 -253.106507 
L 416.242489 -254.953048 
L 415.532782 -256.799589 
L 414.670648 -258.64613 
L 413.606866 -260.492671 
L 412.30934 -262.339212 
L 410.776113 -264.185753 
L 409.040709 -266.032294 
L 407.168442 -267.878835 
L 405.245837 -269.725376 
L 403.367479 -271.571917 
L 401.624582 -273.418458 
L 400.097605 -275.264999 
L 398.852754 -277.11154 
L 397.940631 -278.958081 
L 397.395431 -280.804622 
L 397.234286 -282.651163 
L 397.457606 -284.497704 
L 398.051379 -286.344245 
L 398.991329 -288.190786 
L 400.247435 -290.037327 
L 401.786637 -291.883868 
L 403.572234 -293.730409 
L 405.560212 -295.576949 
L 407.694498 -297.42349 
L 409.904119 -299.270031 
L 412.104718 -301.116572 
L 414.205266 -302.963113 
L 416.118674 -304.809654 
L 417.773435 -306.656195 
L 419.122994 -308.502736 
L 420.15047 -310.349277 
L 420.868099 -312.195818 
L 421.312398 -314.042359 
L 421.536956 -315.8889 
L 421.604547 -317.735441 
L 421.579569 -319.581982 
L 421.52114 -321.428523 
L 421.47708 -323.275064 
L 421.479381 -325.121605 
L 421.542093 -326.968146 
L 421.662362 -328.814687 
L 421.824597 -330.661228 
L 422.006665 -332.507769 
L 422.186344 -334.35431 
L 422.346289 -336.200851 
L 422.476494 -338.047392 
L 422.574232 -339.893933 
L 422.911482 -339.893933 
L 422.911482 -339.893933 
L 423.00922 -338.047392 
L 423.139426 -336.200851 
L 423.29937 -334.35431 
L 423.479049 -332.507769 
L 423.661117 -330.661228 
L 423.823353 -328.814687 
L 423.943622 -326.968146 
L 424.006333 -325.121605 
L 424.008634 -323.275064 
L 423.964574 -321.428523 
L 423.906145 -319.581982 
L 423.881167 -317.735441 
L 423.948758 -315.8889 
L 424.173316 -314.042359 
L 424.617615 -312.195818 
L 425.335244 -310.349277 
L 426.362721 -308.502736 
L 427.712279 -306.656195 
L 429.36704 -304.809654 
L 431.280448 -302.963113 
L 433.380996 -301.116572 
L 435.581596 -299.270031 
L 437.791216 -297.42349 
L 439.925502 -295.576949 
L 441.91348 -293.730409 
L 443.699078 -291.883868 
L 445.238279 -290.037327 
L 446.494385 -288.190786 
L 447.434335 -286.344245 
L 448.028108 -284.497704 
L 448.251429 -282.651163 
L 448.090283 -280.804622 
L 447.545083 -278.958081 
L 446.632961 -277.11154 
L 445.388109 -275.264999 
L 443.861133 -273.418458 
L 442.118235 -271.571917 
L 440.239877 -269.725376 
L 438.317272 -267.878835 
L 436.445006 -266.032294 
L 434.709601 -264.185753 
L 433.176375 -262.339212 
L 431.878849 -260.492671 
L 430.815066 -258.64613 
L 429.952932 -256.799589 
L 429.243225 -254.953048 
L 428.635761 -253.106507 
L 428.093017 -251.259966 
L 427.596767 -249.413425 
L 427.146375 -247.566884 
L 426.75079 -245.720343 
L 426.418432 -243.873803 
L 426.149358 -242.027262 
L 425.93243 -240.180721 
L 425.747786 -238.33418 
L 425.572832 -236.487639 
L 425.388962 -234.641098 
L 425.186477 -232.794557 
L 424.966202 -230.948016 
L 424.737694 -229.101475 
L 424.51503 -227.254934 
L 424.311824 -225.408393 
L 424.137179 -223.561852 
L 423.993739 -221.715311 
L 423.878161 -219.86877 
L 423.783407 -218.022229 
L 423.701698 -216.175688 
L 423.626945 -214.329147 
L 423.555953 -212.482606 
L 423.488323 -210.636065 
L 423.425476 -208.789524 
L 423.36937 -206.942983 
L 423.32135 -205.096442 
L 423.281368 -203.249901 
L 423.247692 -201.40336 
L 423.217172 -199.556819 
L 423.186039 -197.710278 
L 423.151077 -195.863737 
L 423.110806 -194.017196 
L 423.066235 -192.170656 
L 423.020873 -190.324115 
L 422.979945 -188.477574 
L 422.94905 -186.631033 
L 422.932643 -184.784492 
L 422.932778 -182.937951 
L 422.948379 -181.09141 
L 422.975229 -179.244869 
L 423.006689 -177.398328 
L 423.035034 -175.551787 
L 423.053124 -173.705246 
L 423.055993 -171.858705 
L 423.041901 -170.012164 
L 423.012524 -168.165623 
L 422.972249 -166.319082 
L 422.926843 -164.472541 
L 422.881964 -162.626 
L 422.841992 -160.779459 
L 422.809446 -158.932918 
L 422.785013 -157.086377 
z
" style="stroke: #3d3d3d; stroke-width: 1.25"/>
    </defs>
    <g clip-path="url(#paca20e5946)">
     <use xlink:href="#m4f65d9e721" x="0" y="432" style="fill: #d684bd; stroke: #3d3d3d; stroke-width: 1.25"/>
    </g>
   </g>
   <g id="PolyCollection_7">
    <defs>
     <path id="m293ec55080" d="M 486.558415 -39.495797 
L 486.470156 -39.495797 
L 486.443624 -42.628856 
L 486.408055 -45.761914 
L 486.364346 -48.894973 
L 486.31559 -52.028031 
L 486.267075 -55.16109 
L 486.225508 -58.294148 
L 486.197551 -61.427207 
L 486.188062 -64.560265 
L 486.198666 -67.693324 
L 486.227196 -70.826382 
L 486.268211 -73.959441 
L 486.31434 -77.092499 
L 486.357927 -80.225558 
L 486.392392 -83.358616 
L 486.413025 -86.491675 
L 486.417226 -89.624733 
L 486.40449 -92.757792 
L 486.376376 -95.89085 
L 486.336563 -99.023909 
L 486.29077 -102.156967 
L 486.24626 -105.290026 
L 486.210745 -108.423084 
L 486.190816 -111.556143 
L 486.190377 -114.689201 
L 486.209661 -117.82226 
L 486.245251 -120.955318 
L 486.291124 -124.088377 
L 486.340295 -127.221435 
L 486.386453 -130.354494 
L 486.425033 -133.487552 
L 486.453489 -136.620611 
L 486.470874 -139.753669 
L 486.477086 -142.886728 
L 486.472189 -146.019786 
L 486.456127 -149.152845 
L 486.428947 -152.285903 
L 486.391442 -155.418962 
L 486.345903 -158.55202 
L 486.296568 -161.685079 
L 486.249369 -164.818137 
L 486.210816 -167.951196 
L 486.18615 -171.084254 
L 486.177264 -174.217313 
L 486.180986 -177.350371 
L 486.188263 -180.48343 
L 486.184426 -183.616488 
L 486.150509 -186.749547 
L 486.065356 -189.882605 
L 485.908289 -193.015664 
L 485.662013 -196.148722 
L 485.315295 -199.281781 
L 484.864725 -202.414839 
L 484.314832 -205.547898 
L 483.676348 -208.680956 
L 482.963213 -211.814015 
L 482.189702 -214.947073 
L 481.369077 -218.080132 
L 480.514136 -221.21319 
L 479.638555 -224.346249 
L 478.756863 -227.479307 
L 477.881376 -230.612366 
L 477.016263 -233.745424 
L 476.151134 -236.878483 
L 475.257692 -240.011541 
L 474.292232 -243.1446 
L 473.20452 -246.277658 
L 471.951178 -249.410717 
L 470.510247 -252.543775 
L 468.893593 -255.676834 
L 467.154687 -258.809892 
L 465.390267 -261.942951 
L 463.734909 -265.076009 
L 462.347809 -268.209068 
L 461.391733 -271.342126 
L 461.005714 -274.475185 
L 461.275743 -277.608243 
L 462.210276 -280.741302 
L 463.728382 -283.87436 
L 465.66636 -287.007419 
L 467.803842 -290.140477 
L 469.904337 -293.273536 
L 471.760335 -296.406594 
L 473.231557 -299.539653 
L 474.267124 -302.672711 
L 474.907264 -305.80577 
L 475.265759 -308.938828 
L 475.498761 -312.071887 
L 475.767994 -315.204945 
L 476.206518 -318.338004 
L 476.893848 -321.471062 
L 477.844745 -324.604121 
L 479.012984 -327.737179 
L 480.308048 -330.870238 
L 481.619742 -334.003296 
L 482.84387 -337.136355 
L 483.902344 -340.269413 
L 484.753408 -343.402472 
L 485.391235 -346.53553 
L 485.837495 -349.668589 
L 487.191076 -349.668589 
L 487.191076 -349.668589 
L 487.637336 -346.53553 
L 488.275164 -343.402472 
L 489.126227 -340.269413 
L 490.184701 -337.136355 
L 491.408829 -334.003296 
L 492.720523 -330.870238 
L 494.015587 -327.737179 
L 495.183826 -324.604121 
L 496.134724 -321.471062 
L 496.822053 -318.338004 
L 497.260577 -315.204945 
L 497.52981 -312.071887 
L 497.762813 -308.938828 
L 498.121307 -305.80577 
L 498.761448 -302.672711 
L 499.797015 -299.539653 
L 501.268237 -296.406594 
L 503.124235 -293.273536 
L 505.22473 -290.140477 
L 507.362212 -287.007419 
L 509.300189 -283.87436 
L 510.818296 -280.741302 
L 511.752829 -277.608243 
L 512.022857 -274.475185 
L 511.636838 -271.342126 
L 510.680763 -268.209068 
L 509.293663 -265.076009 
L 507.638304 -261.942951 
L 505.873884 -258.809892 
L 504.134979 -255.676834 
L 502.518324 -252.543775 
L 501.077393 -249.410717 
L 499.824051 -246.277658 
L 498.73634 -243.1446 
L 497.77088 -240.011541 
L 496.877438 -236.878483 
L 496.012308 -233.745424 
L 495.147195 -230.612366 
L 494.271709 -227.479307 
L 493.390016 -224.346249 
L 492.514435 -221.21319 
L 491.659495 -218.080132 
L 490.838869 -214.947073 
L 490.065359 -211.814015 
L 489.352224 -208.680956 
L 488.71374 -205.547898 
L 488.163847 -202.414839 
L 487.713276 -199.281781 
L 487.366559 -196.148722 
L 487.120282 -193.015664 
L 486.963215 -189.882605 
L 486.878063 -186.749547 
L 486.844146 -183.616488 
L 486.840309 -180.48343 
L 486.847585 -177.350371 
L 486.851308 -174.217313 
L 486.842421 -171.084254 
L 486.817755 -167.951196 
L 486.779202 -164.818137 
L 486.732003 -161.685079 
L 486.682668 -158.55202 
L 486.63713 -155.418962 
L 486.599625 -152.285903 
L 486.572445 -149.152845 
L 486.556383 -146.019786 
L 486.551486 -142.886728 
L 486.557698 -139.753669 
L 486.575082 -136.620611 
L 486.603538 -133.487552 
L 486.642118 -130.354494 
L 486.688276 -127.221435 
L 486.737447 -124.088377 
L 486.78332 -120.955318 
L 486.818911 -117.82226 
L 486.838194 -114.689201 
L 486.837755 -111.556143 
L 486.817826 -108.423084 
L 486.782311 -105.290026 
L 486.737802 -102.156967 
L 486.692009 -99.023909 
L 486.652196 -95.89085 
L 486.624082 -92.757792 
L 486.611345 -89.624733 
L 486.615547 -86.491675 
L 486.63618 -83.358616 
L 486.670645 -80.225558 
L 486.714231 -77.092499 
L 486.76036 -73.959441 
L 486.801375 -70.826382 
L 486.829905 -67.693324 
L 486.840509 -64.560265 
L 486.83102 -61.427207 
L 486.803064 -58.294148 
L 486.761497 -55.16109 
L 486.712981 -52.028031 
L 486.664225 -48.894973 
L 486.620516 -45.761914 
L 486.584948 -42.628856 
L 486.558415 -39.495797 
z
" style="stroke: #3d3d3d; stroke-width: 1.25"/>
    </defs>
    <g clip-path="url(#paca20e5946)">
     <use xlink:href="#m293ec55080" x="0" y="432" style="fill: #c5949b; stroke: #3d3d3d; stroke-width: 1.25"/>
    </g>
   </g>
   <g id="line2d_15">
    <path d="M 103.885714 208.191359 
L 103.885714 120.596643 
" clip-path="url(#paca20e5946)" style="fill: none; stroke: #3d3d3d; stroke-width: 1.875; stroke-linecap: round"/>
   </g>
   <g id="line2d_16">
    <path d="M 103.885714 174.632333 
L 103.885714 151.678427 
" clip-path="url(#paca20e5946)" style="fill: none; stroke: #3d3d3d; stroke-width: 5.625; stroke-linecap: round"/>
   </g>
   <g id="line2d_17">
    <path d="M 103.885714 162.801642 
" clip-path="url(#paca20e5946)" style="fill: none; stroke: #3d3d3d; stroke-width: 1.5; stroke-linecap: round"/>
    <defs>
     <path id="m3c77d2f275" d="M 2.34375 0 
L -2.34375 -0 
" style="stroke: #ffffff; stroke-width: 1.125"/>
    </defs>
    <g clip-path="url(#paca20e5946)">
     <use xlink:href="#m3c77d2f275" x="103.885714" y="162.801642" style="fill: #ffffff; stroke: #ffffff; stroke-width: 1.125"/>
    </g>
   </g>
   <g id="line2d_18">
    <path d="M 167.657143 214.908615 
L 167.657143 124.21783 
" clip-path="url(#paca20e5946)" style="fill: none; stroke: #3d3d3d; stroke-width: 1.875; stroke-linecap: round"/>
   </g>
   <g id="line2d_19">
    <path d="M 167.657143 181.183192 
L 167.657143 155.462909 
" clip-path="url(#paca20e5946)" style="fill: none; stroke: #3d3d3d; stroke-width: 5.625; stroke-linecap: round"/>
   </g>
   <g id="line2d_20">
    <path d="M 167.657143 171.458797 
" clip-path="url(#paca20e5946)" style="fill: none; stroke: #3d3d3d; stroke-width: 1.5; stroke-linecap: round"/>
    <g clip-path="url(#paca20e5946)">
     <use xlink:href="#m3c77d2f275" x="167.657143" y="171.458797" style="fill: #ffffff; stroke: #ffffff; stroke-width: 1.125"/>
    </g>
   </g>
   <g id="line2d_21">
    <path d="M 231.428571 142.177407 
L 231.428571 107.279967 
" clip-path="url(#paca20e5946)" style="fill: none; stroke: #3d3d3d; stroke-width: 1.875; stroke-linecap: round"/>
   </g>
   <g id="line2d_22">
    <path d="M 231.428571 122.96302 
L 231.428571 109.747076 
" clip-path="url(#paca20e5946)" style="fill: none; stroke: #3d3d3d; stroke-width: 5.625; stroke-linecap: round"/>
   </g>
   <g id="line2d_23">
    <path d="M 231.428571 112.2985 
" clip-path="url(#paca20e5946)" style="fill: none; stroke: #3d3d3d; stroke-width: 1.5; stroke-linecap: round"/>
    <g clip-path="url(#paca20e5946)">
     <use xlink:href="#m3c77d2f275" x="231.428571" y="112.2985" style="fill: #ffffff; stroke: #ffffff; stroke-width: 1.125"/>
    </g>
   </g>
   <g id="line2d_24">
    <path d="M 295.2 235.247271 
L 295.2 107.28 
" clip-path="url(#paca20e5946)" style="fill: none; stroke: #3d3d3d; stroke-width: 1.875; stroke-linecap: round"/>
   </g>
   <g id="line2d_25">
    <path d="M 295.2 170.073844 
L 295.2 124.466427 
" clip-path="url(#paca20e5946)" style="fill: none; stroke: #3d3d3d; stroke-width: 5.625; stroke-linecap: round"/>
   </g>
   <g id="line2d_26">
    <path d="M 295.2 138.6636 
" clip-path="url(#paca20e5946)" style="fill: none; stroke: #3d3d3d; stroke-width: 1.5; stroke-linecap: round"/>
    <g clip-path="url(#paca20e5946)">
     <use xlink:href="#m3c77d2f275" x="295.2" y="138.6636" style="fill: #ffffff; stroke: #ffffff; stroke-width: 1.125"/>
    </g>
   </g>
   <g id="line2d_27">
    <path d="M 358.971429 149.628599 
L 358.971429 107.279967 
" clip-path="url(#paca20e5946)" style="fill: none; stroke: #3d3d3d; stroke-width: 1.875; stroke-linecap: round"/>
   </g>
   <g id="line2d_28">
    <path d="M 358.971429 134.500402 
L 358.971429 123.131879 
" clip-path="url(#paca20e5946)" style="fill: none; stroke: #3d3d3d; stroke-width: 5.625; stroke-linecap: round"/>
   </g>
   <g id="line2d_29">
    <path d="M 358.971429 128.614641 
" clip-path="url(#paca20e5946)" style="fill: none; stroke: #3d3d3d; stroke-width: 1.5; stroke-linecap: round"/>
    <g clip-path="url(#paca20e5946)">
     <use xlink:href="#m3c77d2f275" x="358.971429" y="128.614641" style="fill: #ffffff; stroke: #ffffff; stroke-width: 1.125"/>
    </g>
   </g>
   <g id="line2d_30">
    <path d="M 422.742857 190.234507 
L 422.742857 129.147779 
" clip-path="url(#paca20e5946)" style="fill: none; stroke: #3d3d3d; stroke-width: 1.875; stroke-linecap: round"/>
   </g>
   <g id="line2d_31">
    <path d="M 422.742857 161.848335 
L 422.742857 142.161563 
" clip-path="url(#paca20e5946)" style="fill: none; stroke: #3d3d3d; stroke-width: 5.625; stroke-linecap: round"/>
   </g>
   <g id="line2d_32">
    <path d="M 422.742857 151.384505 
" clip-path="url(#paca20e5946)" style="fill: none; stroke: #3d3d3d; stroke-width: 1.5; stroke-linecap: round"/>
    <g clip-path="url(#paca20e5946)">
     <use xlink:href="#m3c77d2f275" x="422.742857" y="151.384505" style="fill: #ffffff; stroke: #ffffff; stroke-width: 1.125"/>
    </g>
   </g>
   <g id="line2d_33">
    <path d="M 486.514286 221.461164 
L 486.514286 107.28 
" clip-path="url(#paca20e5946)" style="fill: none; stroke: #3d3d3d; stroke-width: 1.875; stroke-linecap: round"/>
   </g>
   <g id="line2d_34">
    <path d="M 486.514286 176.994234 
L 486.514286 142.452454 
" clip-path="url(#paca20e5946)" style="fill: none; stroke: #3d3d3d; stroke-width: 5.625; stroke-linecap: round"/>
   </g>
   <g id="line2d_35">
    <path d="M 486.514286 156.313634 
" clip-path="url(#paca20e5946)" style="fill: none; stroke: #3d3d3d; stroke-width: 1.5; stroke-linecap: round"/>
    <g clip-path="url(#paca20e5946)">
     <use xlink:href="#m3c77d2f275" x="486.514286" y="156.313634" style="fill: #ffffff; stroke: #ffffff; stroke-width: 1.125"/>
    </g>
   </g>
   <g id="patch_3">
    <path d="M 72 384.48 
L 72 51.84 
" style="fill: none; stroke: #262626; stroke-width: 0.8; stroke-linejoin: miter; stroke-linecap: square"/>
   </g>
   <g id="patch_4">
    <path d="M 518.4 384.48 
L 518.4 51.84 
" style="fill: none; stroke: #262626; stroke-width: 0.8; stroke-linejoin: miter; stroke-linecap: square"/>
   </g>
   <g id="patch_5">
    <path d="M 72 384.48 
L 518.4 384.48 
" style="fill: none; stroke: #262626; stroke-width: 0.8; stroke-linejoin: miter; stroke-linecap: square"/>
   </g>
   <g id="patch_6">
    <path d="M 72 51.84 
L 518.4 51.84 
" style="fill: none; stroke: #262626; stroke-width: 0.8; stroke-linejoin: miter; stroke-linecap: square"/>
   </g>
   <g id="text_17">
    <text style="fill: #262626; font: 12px 'Arial', 'DejaVu Sans', 'Liberation Sans', 'Bitstream Vera Sans', sans-serif; text-anchor: middle" x="295.2" y="45.84" transform="rotate(-0 295.2 45.84)">Bas</text>
   </g>
  </g>
 </g>
 <defs>
  <clipPath id="paca20e5946">
   <rect x="72" y="51.84" width="446.4" height="332.64"/>
  </clipPath>
 </defs>
</svg>
