<?xml version="1.0" encoding="utf-8" standalone="no"?>
<!DOCTYPE svg PUBLIC "-//W3C//DTD SVG 1.1//EN"
  "http://www.w3.org/Graphics/SVG/1.1/DTD/svg11.dtd">
<svg xmlns:xlink="http://www.w3.org/1999/xlink" width="576pt" height="432pt" viewBox="0 0 576 432" xmlns="http://www.w3.org/2000/svg" version="1.1">
 <metadata>
  <rdf:RDF xmlns:dc="http://purl.org/dc/elements/1.1/" xmlns:cc="http://creativecommons.org/ns#" xmlns:rdf="http://www.w3.org/1999/02/22-rdf-syntax-ns#">
   <cc:Work>
    <dc:type rdf:resource="http://purl.org/dc/dcmitype/StillImage"/>
    <dc:date>2025-02-14T15:57:18.688581</dc:date>
    <dc:format>image/svg+xml</dc:format>
    <dc:creator>
     <cc:Agent>
      <dc:title>Matplotlib v3.7.3, https://matplotlib.org/</dc:title>
     </cc:Agent>
    </dc:creator>
   </cc:Work>
  </rdf:RDF>
 </metadata>
 <defs>
  <style type="text/css">*{stroke-linejoin: round; stroke-linecap: butt}</style>
 </defs>
 <g id="figure_1">
  <g id="patch_1">
   <path d="M 0 432 
L 576 432 
L 576 0 
L 0 0 
z
" style="fill: #ffffff"/>
  </g>
  <g id="axes_1">
   <g id="patch_2">
    <path d="M 72 384.48 
L 518.4 384.48 
L 518.4 51.84 
L 72 51.84 
z
" style="fill: #ffffff"/>
   </g>
   <g id="matplotlib.axis_1">
    <g id="xtick_1">
     <g id="line2d_1">
      <defs>
       <path id="mbe796bfad6" d="M 0 0 
L 0 3.5 
" style="stroke: #262626; stroke-width: 0.8"/>
      </defs>
      <g>
       <use xlink:href="#mbe796bfad6" x="99.9" y="384.48" style="fill: #262626; stroke: #262626; stroke-width: 0.8"/>
      </g>
     </g>
     <g id="text_1">
      <text style="fill: #262626; font: 10px 'Arial', 'DejaVu Sans', 'Liberation Sans', 'Bitstream Vera Sans', sans-serif; text-anchor: middle" x="99.9" y="398.637812" transform="rotate(-0 99.9 398.637812)">scvelo</text>
     </g>
    </g>
    <g id="xtick_2">
     <g id="line2d_2">
      <g>
       <use xlink:href="#mbe796bfad6" x="155.7" y="384.48" style="fill: #262626; stroke: #262626; stroke-width: 0.8"/>
      </g>
     </g>
     <g id="text_2">
      <text style="fill: #262626; font: 10px 'Arial', 'DejaVu Sans', 'Liberation Sans', 'Bitstream Vera Sans', sans-serif; text-anchor: middle" x="155.7" y="398.637812" transform="rotate(-0 155.7 398.637812)">velovi</text>
     </g>
    </g>
    <g id="xtick_3">
     <g id="line2d_3">
      <g>
       <use xlink:href="#mbe796bfad6" x="211.5" y="384.48" style="fill: #262626; stroke: #262626; stroke-width: 0.8"/>
      </g>
     </g>
     <g id="text_3">
      <text style="fill: #262626; font: 10px 'Arial', 'DejaVu Sans', 'Liberation Sans', 'Bitstream Vera Sans', sans-serif; text-anchor: middle" x="211.5" y="398.637812" transform="rotate(-0 211.5 398.637812)">unitvelo</text>
     </g>
    </g>
    <g id="xtick_4">
     <g id="line2d_4">
      <g>
       <use xlink:href="#mbe796bfad6" x="267.3" y="384.48" style="fill: #262626; stroke: #262626; stroke-width: 0.8"/>
      </g>
     </g>
     <g id="text_4">
      <text style="fill: #262626; font: 10px 'Arial', 'DejaVu Sans', 'Liberation Sans', 'Bitstream Vera Sans', sans-serif; text-anchor: middle" x="267.3" y="398.637812" transform="rotate(-0 267.3 398.637812)">velovae</text>
     </g>
    </g>
    <g id="xtick_5">
     <g id="line2d_5">
      <g>
       <use xlink:href="#mbe796bfad6" x="323.1" y="384.48" style="fill: #262626; stroke: #262626; stroke-width: 0.8"/>
      </g>
     </g>
     <g id="text_5">
      <text style="fill: #262626; font: 10px 'Arial', 'DejaVu Sans', 'Liberation Sans', 'Bitstream Vera Sans', sans-serif; text-anchor: middle" x="323.1" y="398.637812" transform="rotate(-0 323.1 398.637812)">deepvelo_cui</text>
     </g>
    </g>
    <g id="xtick_6">
     <g id="line2d_6">
      <g>
       <use xlink:href="#mbe796bfad6" x="378.9" y="384.48" style="fill: #262626; stroke: #262626; stroke-width: 0.8"/>
      </g>
     </g>
     <g id="text_6">
      <text style="fill: #262626; font: 10px 'Arial', 'DejaVu Sans', 'Liberation Sans', 'Bitstream Vera Sans', sans-serif; text-anchor: middle" x="378.9" y="398.637812" transform="rotate(-0 378.9 398.637812)">topovelo</text>
     </g>
    </g>
    <g id="xtick_7">
     <g id="line2d_7">
      <g>
       <use xlink:href="#mbe796bfad6" x="434.7" y="384.48" style="fill: #262626; stroke: #262626; stroke-width: 0.8"/>
      </g>
     </g>
     <g id="text_7">
      <text style="fill: #262626; font: 10px 'Arial', 'DejaVu Sans', 'Liberation Sans', 'Bitstream Vera Sans', sans-serif; text-anchor: middle" x="434.7" y="398.637812" transform="rotate(-0 434.7 398.637812)">stt</text>
     </g>
    </g>
    <g id="xtick_8">
     <g id="line2d_8">
      <g>
       <use xlink:href="#mbe796bfad6" x="490.5" y="384.48" style="fill: #262626; stroke: #262626; stroke-width: 0.8"/>
      </g>
     </g>
     <g id="text_8">
      <text style="fill: #262626; font: 10px 'Arial', 'DejaVu Sans', 'Liberation Sans', 'Bitstream Vera Sans', sans-serif; text-anchor: middle" x="490.5" y="398.759687" transform="rotate(-0 490.5 398.759687)">stt(vj)</text>
     </g>
    </g>
    <g id="text_9">
     <text style="fill: #262626; font: 10px 'Arial', 'DejaVu Sans', 'Liberation Sans', 'Bitstream Vera Sans', sans-serif; text-anchor: middle" x="295.2" y="412.022188" transform="rotate(-0 295.2 412.022188)">model</text>
    </g>
   </g>
   <g id="matplotlib.axis_2">
    <g id="ytick_1">
     <g id="line2d_9">
      <defs>
       <path id="mdd3a64069b" d="M 0 0 
L -3.5 0 
" style="stroke: #262626; stroke-width: 0.8"/>
      </defs>
      <g>
       <use xlink:href="#mdd3a64069b" x="72" y="374.085" style="fill: #262626; stroke: #262626; stroke-width: 0.8"/>
      </g>
     </g>
     <g id="text_10">
      <text style="fill: #262626; font: 10px 'Arial', 'DejaVu Sans', 'Liberation Sans', 'Bitstream Vera Sans', sans-serif; text-anchor: end" x="65" y="377.663906" transform="rotate(-0 65 377.663906)">−1.5</text>
     </g>
    </g>
    <g id="ytick_2">
     <g id="line2d_10">
      <g>
       <use xlink:href="#mdd3a64069b" x="72" y="322.11" style="fill: #262626; stroke: #262626; stroke-width: 0.8"/>
      </g>
     </g>
     <g id="text_11">
      <text style="fill: #262626; font: 10px 'Arial', 'DejaVu Sans', 'Liberation Sans', 'Bitstream Vera Sans', sans-serif; text-anchor: end" x="65" y="325.688906" transform="rotate(-0 65 325.688906)">−1.0</text>
     </g>
    </g>
    <g id="ytick_3">
     <g id="line2d_11">
      <g>
       <use xlink:href="#mdd3a64069b" x="72" y="270.135" style="fill: #262626; stroke: #262626; stroke-width: 0.8"/>
      </g>
     </g>
     <g id="text_12">
      <text style="fill: #262626; font: 10px 'Arial', 'DejaVu Sans', 'Liberation Sans', 'Bitstream Vera Sans', sans-serif; text-anchor: end" x="65" y="273.713906" transform="rotate(-0 65 273.713906)">−0.5</text>
     </g>
    </g>
    <g id="ytick_4">
     <g id="line2d_12">
      <g>
       <use xlink:href="#mdd3a64069b" x="72" y="218.16" style="fill: #262626; stroke: #262626; stroke-width: 0.8"/>
      </g>
     </g>
     <g id="text_13">
      <text style="fill: #262626; font: 10px 'Arial', 'DejaVu Sans', 'Liberation Sans', 'Bitstream Vera Sans', sans-serif; text-anchor: end" x="65" y="221.738906" transform="rotate(-0 65 221.738906)">0.0</text>
     </g>
    </g>
    <g id="ytick_5">
     <g id="line2d_13">
      <g>
       <use xlink:href="#mdd3a64069b" x="72" y="166.185" style="fill: #262626; stroke: #262626; stroke-width: 0.8"/>
      </g>
     </g>
     <g id="text_14">
      <text style="fill: #262626; font: 10px 'Arial', 'DejaVu Sans', 'Liberation Sans', 'Bitstream Vera Sans', sans-serif; text-anchor: end" x="65" y="169.763906" transform="rotate(-0 65 169.763906)">0.5</text>
     </g>
    </g>
    <g id="ytick_6">
     <g id="line2d_14">
      <g>
       <use xlink:href="#mdd3a64069b" x="72" y="114.21" style="fill: #262626; stroke: #262626; stroke-width: 0.8"/>
      </g>
     </g>
     <g id="text_15">
      <text style="fill: #262626; font: 10px 'Arial', 'DejaVu Sans', 'Liberation Sans', 'Bitstream Vera Sans', sans-serif; text-anchor: end" x="65" y="117.788906" transform="rotate(-0 65 117.788906)">1.0</text>
     </g>
    </g>
    <g id="ytick_7">
     <g id="line2d_15">
      <g>
       <use xlink:href="#mdd3a64069b" x="72" y="62.235" style="fill: #262626; stroke: #262626; stroke-width: 0.8"/>
      </g>
     </g>
     <g id="text_16">
      <text style="fill: #262626; font: 10px 'Arial', 'DejaVu Sans', 'Liberation Sans', 'Bitstream Vera Sans', sans-serif; text-anchor: end" x="65" y="65.813906" transform="rotate(-0 65 65.813906)">1.5</text>
     </g>
    </g>
    <g id="text_17">
     <text style="fill: #262626; font: 10px 'Arial', 'DejaVu Sans', 'Liberation Sans', 'Bitstream Vera Sans', sans-serif; text-anchor: middle" x="39.271875" y="218.16" transform="rotate(-90 39.271875 218.16)">cbdir</text>
    </g>
   </g>
   <g id="PolyCollection_1">
    <defs>
     <path id="ma18cec0963" d="M 100.022961 -75.247227 
L 99.777039 -75.247227 
L 99.71921 -78.047697 
L 99.639943 -80.848167 
L 99.533972 -83.648638 
L 99.395825 -86.449108 
L 99.220248 -89.249578 
L 99.002748 -92.050048 
L 98.740198 -94.850518 
L 98.431453 -97.650988 
L 98.077857 -100.451459 
L 97.683565 -103.251929 
L 97.255581 -106.052399 
L 96.803443 -108.852869 
L 96.338546 -111.653339 
L 95.87315 -114.453809 
L 95.41917 -117.25428 
L 94.986895 -120.05475 
L 94.583824 -122.85522 
L 94.213775 -125.65569 
L 93.876423 -128.45616 
L 93.567335 -131.25663 
L 93.278515 -134.0571 
L 92.9994 -136.857571 
L 92.718153 -139.658041 
L 92.4231 -142.458511 
L 92.104093 -145.258981 
L 91.753622 -148.059451 
L 91.367523 -150.859921 
L 90.945189 -153.660392 
L 90.489276 -156.460862 
L 90.004952 -159.261332 
L 89.498846 -162.061802 
L 88.977867 -164.862272 
L 88.448102 -167.662742 
L 87.913997 -170.463213 
L 87.377954 -173.263683 
L 86.840411 -176.064153 
L 86.300374 -178.864623 
L 85.756286 -181.665093 
L 85.207052 -184.465563 
L 84.652998 -187.266034 
L 84.096565 -190.066504 
L 83.542585 -192.866974 
L 82.998047 -195.667444 
L 82.471377 -198.467914 
L 81.971319 -201.268384 
L 81.505615 -204.068855 
L 81.079699 -206.869325 
L 80.695663 -209.669795 
L 80.351712 -212.470265 
L 80.042266 -215.270735 
L 79.758771 -218.071205 
L 79.49114 -220.871676 
L 79.229665 -223.672146 
L 78.967082 -226.472616 
L 78.70048 -229.273086 
L 78.432696 -232.073556 
L 78.172942 -234.874026 
L 77.936504 -237.674497 
L 77.743516 -240.474967 
L 77.616938 -243.275437 
L 77.58 -246.075907 
L 77.653447 -248.876377 
L 77.852926 -251.676847 
L 78.186836 -254.477318 
L 78.654905 -257.277788 
L 79.247637 -260.078258 
L 79.946708 -262.878728 
L 80.726271 -265.679198 
L 81.555076 -268.479668 
L 82.39919 -271.280139 
L 83.225081 -274.080609 
L 84.002778 -276.881079 
L 84.708764 -279.681549 
L 85.328306 -282.482019 
L 85.856939 -285.282489 
L 86.300897 -288.082959 
L 86.676408 -290.88343 
L 87.007872 -293.6839 
L 87.325119 -296.48437 
L 87.660012 -299.28484 
L 88.042819 -302.08531 
L 88.498761 -304.88578 
L 89.04518 -307.686251 
L 89.68966 -310.486721 
L 90.429336 -313.287191 
L 91.251424 -316.087661 
L 92.134894 -318.888131 
L 93.052977 -321.688601 
L 93.976163 -324.489072 
L 94.875249 -327.289542 
L 95.724059 -330.090012 
L 96.501516 -332.890482 
L 97.192891 -335.690952 
L 97.790188 -338.491422 
L 98.291761 -341.291893 
L 98.701339 -344.092363 
L 99.026693 -346.892833 
L 99.278184 -349.693303 
L 99.467395 -352.493773 
L 100.332605 -352.493773 
L 100.332605 -352.493773 
L 100.521816 -349.693303 
L 100.773307 -346.892833 
L 101.098661 -344.092363 
L 101.508239 -341.291893 
L 102.009812 -338.491422 
L 102.607109 -335.690952 
L 103.298484 -332.890482 
L 104.075941 -330.090012 
L 104.924751 -327.289542 
L 105.823837 -324.489072 
L 106.747023 -321.688601 
L 107.665106 -318.888131 
L 108.548576 -316.087661 
L 109.370664 -313.287191 
L 110.11034 -310.486721 
L 110.75482 -307.686251 
L 111.301239 -304.88578 
L 111.757181 -302.08531 
L 112.139988 -299.28484 
L 112.474881 -296.48437 
L 112.792128 -293.6839 
L 113.123592 -290.88343 
L 113.499103 -288.082959 
L 113.943061 -285.282489 
L 114.471694 -282.482019 
L 115.091236 -279.681549 
L 115.797222 -276.881079 
L 116.574919 -274.080609 
L 117.40081 -271.280139 
L 118.244924 -268.479668 
L 119.073729 -265.679198 
L 119.853292 -262.878728 
L 120.552363 -260.078258 
L 121.145095 -257.277788 
L 121.613164 -254.477318 
L 121.947074 -251.676847 
L 122.146553 -248.876377 
L 122.22 -246.075907 
L 122.183062 -243.275437 
L 122.056484 -240.474967 
L 121.863496 -237.674497 
L 121.627058 -234.874026 
L 121.367304 -232.073556 
L 121.09952 -229.273086 
L 120.832918 -226.472616 
L 120.570335 -223.672146 
L 120.30886 -220.871676 
L 120.041229 -218.071205 
L 119.757734 -215.270735 
L 119.448288 -212.470265 
L 119.104337 -209.669795 
L 118.720301 -206.869325 
L 118.294385 -204.068855 
L 117.828681 -201.268384 
L 117.328623 -198.467914 
L 116.801953 -195.667444 
L 116.257415 -192.866974 
L 115.703435 -190.066504 
L 115.147002 -187.266034 
L 114.592948 -184.465563 
L 114.043714 -181.665093 
L 113.499626 -178.864623 
L 112.959589 -176.064153 
L 112.422046 -173.263683 
L 111.886003 -170.463213 
L 111.351898 -167.662742 
L 110.822133 -164.862272 
L 110.301154 -162.061802 
L 109.795048 -159.261332 
L 109.310724 -156.460862 
L 108.854811 -153.660392 
L 108.432477 -150.859921 
L 108.046378 -148.059451 
L 107.695907 -145.258981 
L 107.3769 -142.458511 
L 107.081847 -139.658041 
L 106.8006 -136.857571 
L 106.521485 -134.0571 
L 106.232665 -131.25663 
L 105.923577 -128.45616 
L 105.586225 -125.65569 
L 105.216176 -122.85522 
L 104.813105 -120.05475 
L 104.38083 -117.25428 
L 103.92685 -114.453809 
L 103.461454 -111.653339 
L 102.996557 -108.852869 
L 102.544419 -106.052399 
L 102.116435 -103.251929 
L 101.722143 -100.451459 
L 101.368547 -97.650988 
L 101.059802 -94.850518 
L 100.797252 -92.050048 
L 100.579752 -89.249578 
L 100.404175 -86.449108 
L 100.266028 -83.648638 
L 100.160057 -80.848167 
L 100.08079 -78.047697 
L 100.022961 -75.247227 
z
" style="stroke: #3d3d3d; stroke-width: 1.25"/>
    </defs>
    <g clip-path="url(#pb868054b6b)">
     <use xlink:href="#ma18cec0963" x="0" y="432" style="fill: #3274a1; stroke: #3d3d3d; stroke-width: 1.25"/>
    </g>
   </g>
   <g id="PolyCollection_2">
    <defs>
     <path id="mced2888305" d="M 156.139202 -77.218548 
L 155.260798 -77.218548 
L 155.066577 -79.954513 
L 154.80752 -82.690477 
L 154.471233 -85.426442 
L 154.046485 -88.162407 
L 153.524641 -90.898371 
L 152.901201 -93.634336 
L 152.177228 -96.3703 
L 151.360417 -99.106265 
L 150.465573 -101.84223 
L 149.5143 -104.578194 
L 148.533824 -107.314159 
L 147.555 -110.050124 
L 146.609681 -112.786088 
L 145.727777 -115.522053 
L 144.934376 -118.258017 
L 144.247299 -120.993982 
L 143.675414 -123.729947 
L 143.217887 -126.465911 
L 142.864424 -129.201876 
L 142.596395 -131.937841 
L 142.38867 -134.673805 
L 142.211899 -137.40977 
L 142.035023 -140.145734 
L 141.827801 -142.881699 
L 141.563209 -145.617664 
L 141.219602 -148.353628 
L 140.782541 -151.089593 
L 140.246186 -153.825557 
L 139.614113 -156.561522 
L 138.899426 -159.297487 
L 138.124041 -162.033451 
L 137.317095 -164.769416 
L 136.512513 -167.505381 
L 135.74596 -170.241345 
L 135.051457 -172.97731 
L 134.458108 -175.713274 
L 133.987354 -178.449239 
L 133.651148 -181.185204 
L 133.45129 -183.921168 
L 133.38 -186.657133 
L 133.421585 -189.393098 
L 133.554909 -192.129062 
L 133.75626 -194.865027 
L 134.002167 -197.600991 
L 134.271814 -200.336956 
L 134.548772 -203.072921 
L 134.821947 -205.808885 
L 135.085765 -208.54485 
L 135.339729 -211.280814 
L 135.587541 -214.016779 
L 135.83598 -216.752744 
L 136.093712 -219.488708 
L 136.37015 -222.224673 
L 136.674447 -224.960638 
L 137.014656 -227.696602 
L 137.397095 -230.432567 
L 137.825926 -233.168531 
L 138.302947 -235.904496 
L 138.827603 -238.640461 
L 139.397156 -241.376425 
L 140.006978 -244.11239 
L 140.650878 -246.848355 
L 141.321406 -249.584319 
L 142.010094 -252.320284 
L 142.707637 -255.056248 
L 143.404072 -257.792213 
L 144.089033 -260.528178 
L 144.752158 -263.264142 
L 145.383688 -266.000107 
L 145.975246 -268.736072 
L 146.520698 -271.472036 
L 147.016947 -274.208001 
L 147.464493 -276.943965 
L 147.867619 -279.67993 
L 148.234102 -282.415895 
L 148.574447 -285.151859 
L 148.900749 -287.887824 
L 149.225318 -290.623788 
L 149.559284 -293.359753 
L 149.911364 -296.095718 
L 150.286975 -298.831682 
L 150.687766 -301.567647 
L 151.111626 -304.303612 
L 151.553105 -307.039576 
L 152.004178 -309.775541 
L 152.455214 -312.511505 
L 152.896015 -315.24747 
L 153.316801 -317.983435 
L 153.709046 -320.719399 
L 154.066073 -323.455364 
L 154.3834 -326.191329 
L 154.658826 -328.927293 
L 154.892291 -331.663258 
L 155.085568 -334.399222 
L 155.241842 -337.135187 
L 155.365248 -339.871152 
L 155.460423 -342.607116 
L 155.532104 -345.343081 
L 155.584822 -348.079045 
L 155.815178 -348.079045 
L 155.815178 -348.079045 
L 155.867896 -345.343081 
L 155.939577 -342.607116 
L 156.034752 -339.871152 
L 156.158158 -337.135187 
L 156.314432 -334.399222 
L 156.507709 -331.663258 
L 156.741174 -328.927293 
L 157.0166 -326.191329 
L 157.333927 -323.455364 
L 157.690954 -320.719399 
L 158.083199 -317.983435 
L 158.503985 -315.24747 
L 158.944786 -312.511505 
L 159.395822 -309.775541 
L 159.846895 -307.039576 
L 160.288374 -304.303612 
L 160.712234 -301.567647 
L 161.113025 -298.831682 
L 161.488636 -296.095718 
L 161.840716 -293.359753 
L 162.174682 -290.623788 
L 162.499251 -287.887824 
L 162.825553 -285.151859 
L 163.165898 -282.415895 
L 163.532381 -279.67993 
L 163.935507 -276.943965 
L 164.383053 -274.208001 
L 164.879302 -271.472036 
L 165.424754 -268.736072 
L 166.016312 -266.000107 
L 166.647842 -263.264142 
L 167.310967 -260.528178 
L 167.995928 -257.792213 
L 168.692363 -255.056248 
L 169.389906 -252.320284 
L 170.078594 -249.584319 
L 170.749122 -246.848355 
L 171.393022 -244.11239 
L 172.002844 -241.376425 
L 172.572397 -238.640461 
L 173.097053 -235.904496 
L 173.574074 -233.168531 
L 174.002905 -230.432567 
L 174.385344 -227.696602 
L 174.725553 -224.960638 
L 175.02985 -222.224673 
L 175.306288 -219.488708 
L 175.56402 -216.752744 
L 175.812459 -214.016779 
L 176.060271 -211.280814 
L 176.314235 -208.54485 
L 176.578053 -205.808885 
L 176.851228 -203.072921 
L 177.128186 -200.336956 
L 177.397833 -197.600991 
L 177.64374 -194.865027 
L 177.845091 -192.129062 
L 177.978415 -189.393098 
L 178.02 -186.657133 
L 177.94871 -183.921168 
L 177.748852 -181.185204 
L 177.412646 -178.449239 
L 176.941892 -175.713274 
L 176.348543 -172.97731 
L 175.65404 -170.241345 
L 174.887487 -167.505381 
L 174.082905 -164.769416 
L 173.275959 -162.033451 
L 172.500574 -159.297487 
L 171.785887 -156.561522 
L 171.153814 -153.825557 
L 170.617459 -151.089593 
L 170.180398 -148.353628 
L 169.836791 -145.617664 
L 169.572199 -142.881699 
L 169.364977 -140.145734 
L 169.188101 -137.40977 
L 169.01133 -134.673805 
L 168.803605 -131.937841 
L 168.535576 -129.201876 
L 168.182113 -126.465911 
L 167.724586 -123.729947 
L 167.152701 -120.993982 
L 166.465624 -118.258017 
L 165.672223 -115.522053 
L 164.790319 -112.786088 
L 163.845 -110.050124 
L 162.866176 -107.314159 
L 161.8857 -104.578194 
L 160.934427 -101.84223 
L 160.039583 -99.106265 
L 159.222772 -96.3703 
L 158.498799 -93.634336 
L 157.875359 -90.898371 
L 157.353515 -88.162407 
L 156.928767 -85.426442 
L 156.59248 -82.690477 
L 156.333423 -79.954513 
L 156.139202 -77.218548 
z
" style="stroke: #3d3d3d; stroke-width: 1.25"/>
    </defs>
    <g clip-path="url(#pb868054b6b)">
     <use xlink:href="#mced2888305" x="0" y="432" style="fill: #e1812c; stroke: #3d3d3d; stroke-width: 1.25"/>
    </g>
   </g>
   <g id="PolyCollection_3">
    <defs>
     <path id="mb41a146923" d="M 211.901123 -76.036279 
L 211.098877 -76.036279 
L 210.926301 -78.744486 
L 210.697656 -81.452693 
L 210.402514 -84.160899 
L 210.031417 -86.869106 
L 209.577029 -89.577313 
L 209.035391 -92.285519 
L 208.407088 -94.993726 
L 207.698164 -97.701933 
L 206.920581 -100.41014 
L 206.092079 -103.118346 
L 205.235354 -105.826553 
L 204.376555 -108.53476 
L 203.543236 -111.242967 
L 202.76197 -113.951173 
L 202.055906 -116.65938 
L 201.442588 -119.367587 
L 200.932301 -122.075793 
L 200.527148 -124.784 
L 200.220962 -127.492207 
L 200.00002 -130.200414 
L 199.844436 -132.90862 
L 199.730034 -135.616827 
L 199.630454 -138.325034 
L 199.519269 -141.033241 
L 199.37191 -143.741447 
L 199.167272 -146.449654 
L 198.888926 -149.157861 
L 198.525923 -151.866067 
L 198.073214 -154.574274 
L 197.531726 -157.282481 
L 196.908132 -159.990688 
L 196.214347 -162.698894 
L 195.466766 -165.407101 
L 194.685261 -168.115308 
L 193.89196 -170.823515 
L 193.109843 -173.531721 
L 192.361269 -176.239928 
L 191.666522 -178.948135 
L 191.042554 -181.656341 
L 190.502063 -184.364548 
L 190.05305 -187.072755 
L 189.698903 -189.780962 
L 189.438988 -192.489168 
L 189.269647 -195.197375 
L 189.185378 -197.905582 
L 189.18 -200.613789 
L 189.247562 -203.321995 
L 189.38286 -206.030202 
L 189.581519 -208.738409 
L 189.839702 -211.446615 
L 190.153604 -214.154822 
L 190.518932 -216.863029 
L 190.930548 -219.571236 
L 191.382401 -222.279442 
L 191.86776 -224.987649 
L 192.379705 -227.695856 
L 192.911714 -230.404063 
L 193.458229 -233.112269 
L 194.015027 -235.820476 
L 194.579352 -238.528683 
L 195.149756 -241.236889 
L 195.725711 -243.945096 
L 196.307065 -246.653303 
L 196.89344 -249.36151 
L 197.483678 -252.069716 
L 198.075424 -254.777923 
L 198.664913 -257.48613 
L 199.247013 -260.194337 
L 199.815534 -262.902543 
L 200.363805 -265.61075 
L 200.885441 -268.318957 
L 201.375228 -271.027163 
L 201.829988 -273.73537 
L 202.249269 -276.443577 
L 202.635756 -279.151784 
L 202.99527 -281.85999 
L 203.336348 -284.568197 
L 203.669411 -287.276404 
L 204.005645 -289.984611 
L 204.355725 -292.692817 
L 204.728571 -295.401024 
L 205.130302 -298.109231 
L 205.563524 -300.817437 
L 206.027032 -303.525644 
L 206.515956 -306.233851 
L 207.022297 -308.942058 
L 207.535774 -311.650264 
L 208.044869 -314.358471 
L 208.537913 -317.066678 
L 209.004113 -319.774885 
L 209.434389 -322.483091 
L 209.821966 -325.191298 
L 210.162666 -327.899505 
L 210.454932 -330.607711 
L 210.699588 -333.315918 
L 210.899433 -336.024125 
L 211.058716 -338.732332 
L 211.182584 -341.440538 
L 211.276567 -344.148745 
L 211.723433 -344.148745 
L 211.723433 -344.148745 
L 211.817416 -341.440538 
L 211.941284 -338.732332 
L 212.100567 -336.024125 
L 212.300412 -333.315918 
L 212.545068 -330.607711 
L 212.837334 -327.899505 
L 213.178034 -325.191298 
L 213.565611 -322.483091 
L 213.995887 -319.774885 
L 214.462087 -317.066678 
L 214.955131 -314.358471 
L 215.464226 -311.650264 
L 215.977703 -308.942058 
L 216.484044 -306.233851 
L 216.972968 -303.525644 
L 217.436476 -300.817437 
L 217.869698 -298.109231 
L 218.271429 -295.401024 
L 218.644275 -292.692817 
L 218.994355 -289.984611 
L 219.330589 -287.276404 
L 219.663652 -284.568197 
L 220.00473 -281.85999 
L 220.364244 -279.151784 
L 220.750731 -276.443577 
L 221.170012 -273.73537 
L 221.624772 -271.027163 
L 222.114559 -268.318957 
L 222.636195 -265.61075 
L 223.184466 -262.902543 
L 223.752987 -260.194337 
L 224.335087 -257.48613 
L 224.924576 -254.777923 
L 225.516322 -252.069716 
L 226.10656 -249.36151 
L 226.692935 -246.653303 
L 227.274289 -243.945096 
L 227.850244 -241.236889 
L 228.420648 -238.528683 
L 228.984973 -235.820476 
L 229.541771 -233.112269 
L 230.088286 -230.404063 
L 230.620295 -227.695856 
L 231.13224 -224.987649 
L 231.617599 -222.279442 
L 232.069452 -219.571236 
L 232.481068 -216.863029 
L 232.846396 -214.154822 
L 233.160298 -211.446615 
L 233.418481 -208.738409 
L 233.61714 -206.030202 
L 233.752438 -203.321995 
L 233.82 -200.613789 
L 233.814622 -197.905582 
L 233.730353 -195.197375 
L 233.561012 -192.489168 
L 233.301097 -189.780962 
L 232.94695 -187.072755 
L 232.497937 -184.364548 
L 231.957446 -181.656341 
L 231.333478 -178.948135 
L 230.638731 -176.239928 
L 229.890157 -173.531721 
L 229.10804 -170.823515 
L 228.314739 -168.115308 
L 227.533234 -165.407101 
L 226.785653 -162.698894 
L 226.091868 -159.990688 
L 225.468274 -157.282481 
L 224.926786 -154.574274 
L 224.474077 -151.866067 
L 224.111074 -149.157861 
L 223.832728 -146.449654 
L 223.62809 -143.741447 
L 223.480731 -141.033241 
L 223.369546 -138.325034 
L 223.269966 -135.616827 
L 223.155564 -132.90862 
L 222.99998 -130.200414 
L 222.779038 -127.492207 
L 222.472852 -124.784 
L 222.067699 -122.075793 
L 221.557412 -119.367587 
L 220.944094 -116.65938 
L 220.23803 -113.951173 
L 219.456764 -111.242967 
L 218.623445 -108.53476 
L 217.764646 -105.826553 
L 216.907921 -103.118346 
L 216.079419 -100.41014 
L 215.301836 -97.701933 
L 214.592912 -94.993726 
L 213.964609 -92.285519 
L 213.422971 -89.577313 
L 212.968583 -86.869106 
L 212.597486 -84.160899 
L 212.302344 -81.452693 
L 212.073699 -78.744486 
L 211.901123 -76.036279 
z
" style="stroke: #3d3d3d; stroke-width: 1.25"/>
    </defs>
    <g clip-path="url(#pb868054b6b)">
     <use xlink:href="#mb41a146923" x="0" y="432" style="fill: #9372b2; stroke: #3d3d3d; stroke-width: 1.25"/>
    </g>
   </g>
   <g id="PolyCollection_4">
    <defs>
     <path id="m255b4e2983" d="M 267.952842 -75.32649 
L 266.647158 -75.32649 
L 266.375566 -78.124736 
L 266.022123 -80.922983 
L 265.575158 -83.721229 
L 265.026091 -86.519476 
L 264.371159 -89.317722 
L 263.612995 -92.115969 
L 262.761759 -94.914215 
L 261.835554 -97.712462 
L 260.859929 -100.510708 
L 259.866402 -103.308955 
L 258.8901 -106.107201 
L 257.966776 -108.905448 
L 257.129576 -111.703694 
L 256.406011 -114.501941 
L 255.815531 -117.300187 
L 255.368008 -120.098433 
L 255.063263 -122.89668 
L 254.891587 -125.694926 
L 254.835078 -128.493173 
L 254.869506 -131.291419 
L 254.966393 -134.089666 
L 255.095062 -136.887912 
L 255.224484 -139.686159 
L 255.324849 -142.484405 
L 255.368869 -145.282652 
L 255.332877 -148.080898 
L 255.197774 -150.879145 
L 254.949855 -153.677391 
L 254.581495 -156.475638 
L 254.091644 -159.273884 
L 253.486043 -162.07213 
L 252.777079 -164.870377 
L 251.983231 -167.668623 
L 251.128088 -170.46687 
L 250.238991 -173.265116 
L 249.345387 -176.063363 
L 248.477038 -178.861609 
L 247.662244 -181.659856 
L 246.926252 -184.458102 
L 246.290006 -187.256349 
L 245.769357 -190.054595 
L 245.37479 -192.852842 
L 245.111672 -195.651088 
L 244.980927 -198.449334 
L 244.98 -201.247581 
L 245.103916 -204.045827 
L 245.346222 -206.844074 
L 245.699654 -209.64232 
L 246.156392 -212.440567 
L 246.707924 -215.238813 
L 247.344578 -218.03706 
L 248.054909 -220.835306 
L 248.82518 -223.633553 
L 249.639141 -226.431799 
L 250.478305 -229.230046 
L 251.322777 -232.028292 
L 252.152595 -234.826539 
L 252.949402 -237.624785 
L 253.698176 -240.423031 
L 254.388703 -243.221278 
L 255.016508 -246.019524 
L 255.583032 -248.817771 
L 256.094984 -251.616017 
L 256.562953 -254.414264 
L 256.999487 -257.21251 
L 257.416972 -260.010757 
L 257.825645 -262.809003 
L 258.232049 -265.60725 
L 258.638175 -268.405496 
L 259.041351 -271.203743 
L 259.43488 -274.001989 
L 259.809258 -276.800236 
L 260.153786 -279.598482 
L 260.45833 -282.396728 
L 260.715011 -285.194975 
L 260.919629 -287.993221 
L 261.072671 -290.791468 
L 261.179794 -293.589714 
L 261.251707 -296.387961 
L 261.303437 -299.186207 
L 261.353017 -301.984454 
L 261.419714 -304.7827 
L 261.521974 -307.580947 
L 261.675343 -310.379193 
L 261.890642 -313.17744 
L 262.172674 -315.975686 
L 262.519655 -318.773933 
L 262.923468 -321.572179 
L 263.370701 -324.370425 
L 263.844295 -327.168672 
L 264.325536 -329.966918 
L 264.79609 -332.765165 
L 265.239781 -335.563411 
L 265.643901 -338.361658 
L 265.999923 -341.159904 
L 266.303625 -343.958151 
L 266.554697 -346.756397 
L 266.755996 -349.554644 
L 266.912608 -352.35289 
L 267.687392 -352.35289 
L 267.687392 -352.35289 
L 267.844004 -349.554644 
L 268.045303 -346.756397 
L 268.296375 -343.958151 
L 268.600077 -341.159904 
L 268.956099 -338.361658 
L 269.360219 -335.563411 
L 269.80391 -332.765165 
L 270.274464 -329.966918 
L 270.755705 -327.168672 
L 271.229299 -324.370425 
L 271.676532 -321.572179 
L 272.080345 -318.773933 
L 272.427326 -315.975686 
L 272.709358 -313.17744 
L 272.924657 -310.379193 
L 273.078026 -307.580947 
L 273.180286 -304.7827 
L 273.246983 -301.984454 
L 273.296563 -299.186207 
L 273.348293 -296.387961 
L 273.420206 -293.589714 
L 273.527329 -290.791468 
L 273.680371 -287.993221 
L 273.884989 -285.194975 
L 274.14167 -282.396728 
L 274.446214 -279.598482 
L 274.790742 -276.800236 
L 275.16512 -274.001989 
L 275.558649 -271.203743 
L 275.961825 -268.405496 
L 276.367951 -265.60725 
L 276.774355 -262.809003 
L 277.183028 -260.010757 
L 277.600513 -257.21251 
L 278.037047 -254.414264 
L 278.505016 -251.616017 
L 279.016968 -248.817771 
L 279.583492 -246.019524 
L 280.211297 -243.221278 
L 280.901824 -240.423031 
L 281.650598 -237.624785 
L 282.447405 -234.826539 
L 283.277223 -232.028292 
L 284.121695 -229.230046 
L 284.960859 -226.431799 
L 285.77482 -223.633553 
L 286.545091 -220.835306 
L 287.255422 -218.03706 
L 287.892076 -215.238813 
L 288.443608 -212.440567 
L 288.900346 -209.64232 
L 289.253778 -206.844074 
L 289.496084 -204.045827 
L 289.62 -201.247581 
L 289.619073 -198.449334 
L 289.488328 -195.651088 
L 289.22521 -192.852842 
L 288.830643 -190.054595 
L 288.309994 -187.256349 
L 287.673748 -184.458102 
L 286.937756 -181.659856 
L 286.122962 -178.861609 
L 285.254613 -176.063363 
L 284.361009 -173.265116 
L 283.471912 -170.46687 
L 282.616769 -167.668623 
L 281.822921 -164.870377 
L 281.113957 -162.07213 
L 280.508356 -159.273884 
L 280.018505 -156.475638 
L 279.650145 -153.677391 
L 279.402226 -150.879145 
L 279.267123 -148.080898 
L 279.231131 -145.282652 
L 279.275151 -142.484405 
L 279.375516 -139.686159 
L 279.504938 -136.887912 
L 279.633607 -134.089666 
L 279.730494 -131.291419 
L 279.764922 -128.493173 
L 279.708413 -125.694926 
L 279.536737 -122.89668 
L 279.231992 -120.098433 
L 278.784469 -117.300187 
L 278.193989 -114.501941 
L 277.470424 -111.703694 
L 276.633224 -108.905448 
L 275.7099 -106.107201 
L 274.733598 -103.308955 
L 273.740071 -100.510708 
L 272.764446 -97.712462 
L 271.838241 -94.914215 
L 270.987005 -92.115969 
L 270.228841 -89.317722 
L 269.573909 -86.519476 
L 269.024842 -83.721229 
L 268.577877 -80.922983 
L 268.224434 -78.124736 
L 267.952842 -75.32649 
z
" style="stroke: #3d3d3d; stroke-width: 1.25"/>
    </defs>
    <g clip-path="url(#pb868054b6b)">
     <use xlink:href="#m255b4e2983" x="0" y="432" style="fill: #c03d3e; stroke: #3d3d3d; stroke-width: 1.25"/>
    </g>
   </g>
   <g id="PolyCollection_5">
    <defs>
     <path id="m717670292d" d="M 323.427282 -75.1096 
L 322.772718 -75.1096 
L 322.64131 -77.912439 
L 322.471928 -80.715277 
L 322.2595 -83.518116 
L 322.000317 -86.320954 
L 321.69271 -89.123793 
L 321.337636 -91.926631 
L 320.939069 -94.72947 
L 320.504091 -97.532308 
L 320.042625 -100.335147 
L 319.566781 -103.137985 
L 319.089875 -105.940824 
L 318.625194 -108.743662 
L 318.184677 -111.546501 
L 317.777662 -114.349339 
L 317.409877 -117.152178 
L 317.082819 -119.955016 
L 316.793611 -122.757855 
L 316.535376 -125.560693 
L 316.29809 -128.363532 
L 316.069821 -131.16637 
L 315.838184 -133.969209 
L 315.591832 -136.772047 
L 315.321762 -139.574886 
L 315.022264 -142.377724 
L 314.691355 -145.180563 
L 314.330656 -147.983401 
L 313.94472 -150.78624 
L 313.539953 -153.589078 
L 313.123297 -156.391917 
L 312.700925 -159.194755 
L 312.277154 -161.997594 
L 311.853757 -164.800432 
L 311.429762 -167.603271 
L 311.001722 -170.406109 
L 310.564385 -173.208948 
L 310.11159 -176.011786 
L 309.637238 -178.814625 
L 309.136182 -181.617463 
L 308.604931 -184.420302 
L 308.042121 -187.22314 
L 307.448769 -190.025979 
L 306.828331 -192.828817 
L 306.18664 -195.631656 
L 305.531729 -198.434494 
L 304.873586 -201.237333 
L 304.223819 -204.040171 
L 303.595218 -206.84301 
L 303.001216 -209.645848 
L 302.455252 -212.448687 
L 301.970082 -215.251525 
L 301.557102 -218.054364 
L 301.225768 -220.857202 
L 300.983183 -223.660041 
L 300.833909 -226.462879 
L 300.78 -229.265718 
L 300.821242 -232.068556 
L 300.955499 -234.871395 
L 301.179084 -237.674233 
L 301.487044 -240.477072 
L 301.873304 -243.27991 
L 302.330623 -246.082749 
L 302.850403 -248.885587 
L 303.422405 -251.688426 
L 304.03448 -254.491264 
L 304.67241 -257.294103 
L 305.319961 -260.096941 
L 305.959188 -262.89978 
L 306.571055 -265.702619 
L 307.136346 -268.505457 
L 307.636841 -271.308296 
L 308.056709 -274.111134 
L 308.384028 -276.913973 
L 308.612308 -279.716811 
L 308.741879 -282.51965 
L 308.780946 -285.322488 
L 308.746119 -288.125327 
L 308.662228 -290.928165 
L 308.561265 -293.731004 
L 308.480423 -296.533842 
L 308.45927 -299.336681 
L 308.536299 -302.139519 
L 308.745196 -304.942358 
L 309.11127 -307.745196 
L 309.648549 -310.548035 
L 310.35796 -313.350873 
L 311.226915 -316.153712 
L 312.230399 -318.95655 
L 313.333441 -321.759389 
L 314.494632 -324.562227 
L 315.670198 -327.365066 
L 316.81807 -330.167904 
L 317.901412 -332.970743 
L 318.891227 -335.773581 
L 319.767791 -338.57642 
L 320.520905 -341.379258 
L 321.149115 -344.182097 
L 321.658177 -346.984935 
L 322.0591 -349.787774 
L 322.366104 -352.590612 
L 323.833896 -352.590612 
L 323.833896 -352.590612 
L 324.1409 -349.787774 
L 324.541823 -346.984935 
L 325.050885 -344.182097 
L 325.679095 -341.379258 
L 326.432209 -338.57642 
L 327.308773 -335.773581 
L 328.298588 -332.970743 
L 329.38193 -330.167904 
L 330.529802 -327.365066 
L 331.705368 -324.562227 
L 332.866559 -321.759389 
L 333.969601 -318.95655 
L 334.973085 -316.153712 
L 335.84204 -313.350873 
L 336.551451 -310.548035 
L 337.08873 -307.745196 
L 337.454804 -304.942358 
L 337.663701 -302.139519 
L 337.74073 -299.336681 
L 337.719577 -296.533842 
L 337.638735 -293.731004 
L 337.537772 -290.928165 
L 337.453881 -288.125327 
L 337.419054 -285.322488 
L 337.458121 -282.51965 
L 337.587692 -279.716811 
L 337.815972 -276.913973 
L 338.143291 -274.111134 
L 338.563159 -271.308296 
L 339.063654 -268.505457 
L 339.628945 -265.702619 
L 340.240812 -262.89978 
L 340.880039 -260.096941 
L 341.52759 -257.294103 
L 342.16552 -254.491264 
L 342.777595 -251.688426 
L 343.349597 -248.885587 
L 343.869377 -246.082749 
L 344.326696 -243.27991 
L 344.712956 -240.477072 
L 345.020916 -237.674233 
L 345.244501 -234.871395 
L 345.378758 -232.068556 
L 345.42 -229.265718 
L 345.366091 -226.462879 
L 345.216817 -223.660041 
L 344.974232 -220.857202 
L 344.642898 -218.054364 
L 344.229918 -215.251525 
L 343.744748 -212.448687 
L 343.198784 -209.645848 
L 342.604782 -206.84301 
L 341.976181 -204.040171 
L 341.326414 -201.237333 
L 340.668271 -198.434494 
L 340.01336 -195.631656 
L 339.371669 -192.828817 
L 338.751231 -190.025979 
L 338.157879 -187.22314 
L 337.595069 -184.420302 
L 337.063818 -181.617463 
L 336.562762 -178.814625 
L 336.08841 -176.011786 
L 335.635615 -173.208948 
L 335.198278 -170.406109 
L 334.770238 -167.603271 
L 334.346243 -164.800432 
L 333.922846 -161.997594 
L 333.499075 -159.194755 
L 333.076703 -156.391917 
L 332.660047 -153.589078 
L 332.25528 -150.78624 
L 331.869344 -147.983401 
L 331.508645 -145.180563 
L 331.177736 -142.377724 
L 330.878238 -139.574886 
L 330.608168 -136.772047 
L 330.361816 -133.969209 
L 330.130179 -131.16637 
L 329.90191 -128.363532 
L 329.664624 -125.560693 
L 329.406389 -122.757855 
L 329.117181 -119.955016 
L 328.790123 -117.152178 
L 328.422338 -114.349339 
L 328.015323 -111.546501 
L 327.574806 -108.743662 
L 327.110125 -105.940824 
L 326.633219 -103.137985 
L 326.157375 -100.335147 
L 325.695909 -97.532308 
L 325.260931 -94.72947 
L 324.862364 -91.926631 
L 324.50729 -89.123793 
L 324.199683 -86.320954 
L 323.9405 -83.518116 
L 323.728072 -80.715277 
L 323.55869 -77.912439 
L 323.427282 -75.1096 
z
" style="stroke: #3d3d3d; stroke-width: 1.25"/>
    </defs>
    <g clip-path="url(#pb868054b6b)">
     <use xlink:href="#m717670292d" x="0" y="432" style="fill: #845b53; stroke: #3d3d3d; stroke-width: 1.25"/>
    </g>
   </g>
   <g id="PolyCollection_6">
    <defs>
     <path id="mbe948e18c9" d="M 379.231195 -76.165097 
L 378.568805 -76.165097 
L 378.424459 -78.94653 
L 378.233636 -81.727963 
L 377.988433 -84.509397 
L 377.682214 -87.29083 
L 377.310599 -90.072264 
L 376.872419 -92.853697 
L 376.370486 -95.63513 
L 375.811995 -98.416564 
L 375.20844 -101.197997 
L 374.574973 -103.979431 
L 373.929227 -106.760864 
L 373.289728 -109.542297 
L 372.674092 -112.323731 
L 372.097255 -115.105164 
L 371.569989 -117.886598 
L 371.097892 -120.668031 
L 370.68098 -123.449464 
L 370.313894 -126.230898 
L 369.986661 -129.012331 
L 369.685864 -131.793765 
L 369.396071 -134.575198 
L 369.101368 -137.356632 
L 368.786841 -140.138065 
L 368.439925 -142.919498 
L 368.051512 -145.700932 
L 367.616749 -148.482365 
L 367.135449 -151.263799 
L 366.612059 -154.045232 
L 366.05514 -156.826665 
L 365.476396 -159.608099 
L 364.889323 -162.389532 
L 364.307646 -165.170966 
L 363.743752 -167.952399 
L 363.207355 -170.733832 
L 362.704578 -173.515266 
L 362.237583 -176.296699 
L 361.804775 -179.078133 
L 361.401499 -181.859566 
L 361.021066 -184.640999 
L 360.655939 -187.422433 
L 360.298869 -190.203866 
L 359.943853 -192.9853 
L 359.586836 -195.766733 
L 359.226133 -198.548166 
L 358.862604 -201.3296 
L 358.499624 -204.111033 
L 358.142891 -206.892467 
L 357.800095 -209.6739 
L 357.480456 -212.455333 
L 357.194146 -215.236767 
L 356.951606 -218.0182 
L 356.762815 -220.799634 
L 356.636587 -223.581067 
L 356.58 -226.362501 
L 356.598036 -229.143934 
L 356.693512 -231.925367 
L 356.867289 -234.706801 
L 357.118677 -237.488234 
L 357.445915 -240.269668 
L 357.846549 -243.051101 
L 358.31755 -245.832534 
L 358.8551 -248.613968 
L 359.454038 -251.395401 
L 360.107119 -254.176835 
L 360.804269 -256.958268 
L 361.532124 -259.739701 
L 362.274047 -262.521135 
L 363.010801 -265.302568 
L 363.721848 -268.084002 
L 364.387187 -270.865435 
L 364.989451 -273.646868 
L 365.51597 -276.428302 
L 365.960476 -279.209735 
L 366.324177 -281.991169 
L 366.616043 -284.772602 
L 366.852236 -287.554035 
L 367.054758 -290.335469 
L 367.249458 -293.116902 
L 367.463625 -295.898336 
L 367.723418 -298.679769 
L 368.051379 -301.461203 
L 368.464294 -304.242636 
L 368.971585 -307.024069 
L 369.574424 -309.805503 
L 370.265642 -312.586936 
L 371.030463 -315.36837 
L 371.847976 -318.149803 
L 372.693189 -320.931236 
L 373.539404 -323.71267 
L 374.360648 -326.494103 
L 375.13385 -329.275537 
L 375.840531 -332.05697 
L 376.467843 -334.838403 
L 377.008904 -337.619837 
L 377.462477 -340.40127 
L 377.832128 -343.182704 
L 378.125057 -345.964137 
L 378.350807 -348.74557 
L 378.520021 -351.527004 
L 379.279979 -351.527004 
L 379.279979 -351.527004 
L 379.449193 -348.74557 
L 379.674943 -345.964137 
L 379.967872 -343.182704 
L 380.337523 -340.40127 
L 380.791096 -337.619837 
L 381.332157 -334.838403 
L 381.959469 -332.05697 
L 382.66615 -329.275537 
L 383.439352 -326.494103 
L 384.260596 -323.71267 
L 385.106811 -320.931236 
L 385.952024 -318.149803 
L 386.769537 -315.36837 
L 387.534358 -312.586936 
L 388.225576 -309.805503 
L 388.828415 -307.024069 
L 389.335706 -304.242636 
L 389.748621 -301.461203 
L 390.076582 -298.679769 
L 390.336375 -295.898336 
L 390.550542 -293.116902 
L 390.745242 -290.335469 
L 390.947764 -287.554035 
L 391.183957 -284.772602 
L 391.475823 -281.991169 
L 391.839524 -279.209735 
L 392.28403 -276.428302 
L 392.810549 -273.646868 
L 393.412813 -270.865435 
L 394.078152 -268.084002 
L 394.789199 -265.302568 
L 395.525953 -262.521135 
L 396.267876 -259.739701 
L 396.995731 -256.958268 
L 397.692881 -254.176835 
L 398.345962 -251.395401 
L 398.9449 -248.613968 
L 399.48245 -245.832534 
L 399.953451 -243.051101 
L 400.354085 -240.269668 
L 400.681323 -237.488234 
L 400.932711 -234.706801 
L 401.106488 -231.925367 
L 401.201964 -229.143934 
L 401.22 -226.362501 
L 401.163413 -223.581067 
L 401.037185 -220.799634 
L 400.848394 -218.0182 
L 400.605854 -215.236767 
L 400.319544 -212.455333 
L 399.999905 -209.6739 
L 399.657109 -206.892467 
L 399.300376 -204.111033 
L 398.937396 -201.3296 
L 398.573867 -198.548166 
L 398.213164 -195.766733 
L 397.856147 -192.9853 
L 397.501131 -190.203866 
L 397.144061 -187.422433 
L 396.778934 -184.640999 
L 396.398501 -181.859566 
L 395.995225 -179.078133 
L 395.562417 -176.296699 
L 395.095422 -173.515266 
L 394.592645 -170.733832 
L 394.056248 -167.952399 
L 393.492354 -165.170966 
L 392.910677 -162.389532 
L 392.323604 -159.608099 
L 391.74486 -156.826665 
L 391.187941 -154.045232 
L 390.664551 -151.263799 
L 390.183251 -148.482365 
L 389.748488 -145.700932 
L 389.360075 -142.919498 
L 389.013159 -140.138065 
L 388.698632 -137.356632 
L 388.403929 -134.575198 
L 388.114136 -131.793765 
L 387.813339 -129.012331 
L 387.486106 -126.230898 
L 387.11902 -123.449464 
L 386.702108 -120.668031 
L 386.230011 -117.886598 
L 385.702745 -115.105164 
L 385.125908 -112.323731 
L 384.510272 -109.542297 
L 383.870773 -106.760864 
L 383.225027 -103.979431 
L 382.59156 -101.197997 
L 381.988005 -98.416564 
L 381.429514 -95.63513 
L 380.927581 -92.853697 
L 380.489401 -90.072264 
L 380.117786 -87.29083 
L 379.811567 -84.509397 
L 379.566364 -81.727963 
L 379.375541 -78.94653 
L 379.231195 -76.165097 
z
" style="stroke: #3d3d3d; stroke-width: 1.25"/>
    </defs>
    <g clip-path="url(#pb868054b6b)">
     <use xlink:href="#mbe948e18c9" x="0" y="432" style="fill: #3a923a; stroke: #3d3d3d; stroke-width: 1.25"/>
    </g>
   </g>
   <g id="PolyCollection_7">
    <defs>
     <path id="m1047f51738" d="M 435.137828 -76.202524 
L 434.262172 -76.202524 
L 434.060937 -78.964716 
L 433.789711 -81.726908 
L 433.434483 -84.4891 
L 432.982597 -87.251292 
L 432.424567 -90.013484 
L 431.756075 -92.775676 
L 430.979879 -95.537868 
L 430.107283 -98.30006 
L 429.158825 -101.062252 
L 428.163885 -103.824445 
L 427.159041 -106.586637 
L 426.185205 -109.348829 
L 425.283793 -112.111021 
L 424.49236 -114.873213 
L 423.840319 -117.635405 
L 423.345351 -120.397597 
L 423.011068 -123.159789 
L 422.826307 -125.921981 
L 422.766155 -128.684173 
L 422.794565 -131.446366 
L 422.868162 -134.208558 
L 422.940708 -136.97075 
L 422.967614 -139.732942 
L 422.909974 -142.495134 
L 422.737692 -145.257326 
L 422.431479 -148.019518 
L 421.983647 -150.78171 
L 421.397821 -153.543902 
L 420.687749 -156.306094 
L 419.875488 -159.068287 
L 418.989223 -161.830479 
L 418.060961 -164.592671 
L 417.124275 -167.354863 
L 416.212219 -170.117055 
L 415.355477 -172.879247 
L 414.580769 -175.641439 
L 413.909517 -178.403631 
L 413.356786 -181.165823 
L 412.930541 -183.928015 
L 412.631294 -186.690207 
L 412.45224 -189.4524 
L 412.38 -192.214592 
L 412.396005 -194.976784 
L 412.478524 -197.738976 
L 412.605173 -200.501168 
L 412.755649 -203.26336 
L 412.914336 -206.025552 
L 413.072382 -208.787744 
L 413.228895 -211.549936 
L 413.391027 -214.312128 
L 413.57288 -217.074321 
L 413.793377 -219.836513 
L 414.073399 -222.598705 
L 414.43263 -225.360897 
L 414.886575 -228.123089 
L 415.444197 -230.885281 
L 416.106469 -233.647473 
L 416.866029 -236.409665 
L 417.707898 -239.171857 
L 418.611112 -241.934049 
L 419.550971 -244.696242 
L 420.501568 -247.458434 
L 421.438239 -250.220626 
L 422.339629 -252.982818 
L 423.189161 -255.74501 
L 423.975767 -258.507202 
L 424.693899 -261.269394 
L 425.34289 -264.031586 
L 425.925868 -266.793778 
L 426.448431 -269.55597 
L 426.917349 -272.318162 
L 427.3395 -275.080355 
L 427.721207 -277.842547 
L 428.068031 -280.604739 
L 428.384974 -283.366931 
L 428.676962 -286.129123 
L 428.949392 -288.891315 
L 429.208529 -291.653507 
L 429.461581 -294.415699 
L 429.716367 -297.177891 
L 429.980604 -299.940083 
L 430.260944 -302.702276 
L 430.561983 -305.464468 
L 430.885453 -308.22666 
L 431.229792 -310.988852 
L 431.590206 -313.751044 
L 431.959206 -316.513236 
L 432.32753 -319.275428 
L 432.685273 -322.03762 
L 433.023033 -324.799812 
L 433.332885 -327.562004 
L 433.609056 -330.324197 
L 433.848245 -333.086389 
L 434.049598 -335.848581 
L 434.214401 -338.610773 
L 434.345594 -341.372965 
L 434.447204 -344.135157 
L 434.523796 -346.897349 
L 434.58 -349.659541 
L 434.82 -349.659541 
L 434.82 -349.659541 
L 434.876204 -346.897349 
L 434.952796 -344.135157 
L 435.054406 -341.372965 
L 435.185599 -338.610773 
L 435.350402 -335.848581 
L 435.551755 -333.086389 
L 435.790944 -330.324197 
L 436.067115 -327.562004 
L 436.376967 -324.799812 
L 436.714727 -322.03762 
L 437.07247 -319.275428 
L 437.440794 -316.513236 
L 437.809794 -313.751044 
L 438.170208 -310.988852 
L 438.514547 -308.22666 
L 438.838017 -305.464468 
L 439.139056 -302.702276 
L 439.419396 -299.940083 
L 439.683633 -297.177891 
L 439.938419 -294.415699 
L 440.191471 -291.653507 
L 440.450608 -288.891315 
L 440.723038 -286.129123 
L 441.015026 -283.366931 
L 441.331969 -280.604739 
L 441.678793 -277.842547 
L 442.0605 -275.080355 
L 442.482651 -272.318162 
L 442.951569 -269.55597 
L 443.474132 -266.793778 
L 444.05711 -264.031586 
L 444.706101 -261.269394 
L 445.424233 -258.507202 
L 446.210839 -255.74501 
L 447.060371 -252.982818 
L 447.961761 -250.220626 
L 448.898432 -247.458434 
L 449.849029 -244.696242 
L 450.788888 -241.934049 
L 451.692102 -239.171857 
L 452.533971 -236.409665 
L 453.293531 -233.647473 
L 453.955803 -230.885281 
L 454.513425 -228.123089 
L 454.96737 -225.360897 
L 455.326601 -222.598705 
L 455.606623 -219.836513 
L 455.82712 -217.074321 
L 456.008973 -214.312128 
L 456.171105 -211.549936 
L 456.327618 -208.787744 
L 456.485664 -206.025552 
L 456.644351 -203.26336 
L 456.794827 -200.501168 
L 456.921476 -197.738976 
L 457.003995 -194.976784 
L 457.02 -192.214592 
L 456.94776 -189.4524 
L 456.768706 -186.690207 
L 456.469459 -183.928015 
L 456.043214 -181.165823 
L 455.490483 -178.403631 
L 454.819231 -175.641439 
L 454.044523 -172.879247 
L 453.187781 -170.117055 
L 452.275725 -167.354863 
L 451.339039 -164.592671 
L 450.410777 -161.830479 
L 449.524512 -159.068287 
L 448.712251 -156.306094 
L 448.002179 -153.543902 
L 447.416353 -150.78171 
L 446.968521 -148.019518 
L 446.662308 -145.257326 
L 446.490026 -142.495134 
L 446.432386 -139.732942 
L 446.459292 -136.97075 
L 446.531838 -134.208558 
L 446.605435 -131.446366 
L 446.633845 -128.684173 
L 446.573693 -125.921981 
L 446.388932 -123.159789 
L 446.054649 -120.397597 
L 445.559681 -117.635405 
L 444.90764 -114.873213 
L 444.116207 -112.111021 
L 443.214795 -109.348829 
L 442.240959 -106.586637 
L 441.236115 -103.824445 
L 440.241175 -101.062252 
L 439.292717 -98.30006 
L 438.420121 -95.537868 
L 437.643925 -92.775676 
L 436.975433 -90.013484 
L 436.417403 -87.251292 
L 435.965517 -84.4891 
L 435.610289 -81.726908 
L 435.339063 -78.964716 
L 435.137828 -76.202524 
z
" style="stroke: #3d3d3d; stroke-width: 1.25"/>
    </defs>
    <g clip-path="url(#pb868054b6b)">
     <use xlink:href="#m1047f51738" x="0" y="432" style="fill: #d684bd; stroke: #3d3d3d; stroke-width: 1.25"/>
    </g>
   </g>
   <g id="PolyCollection_8">
    <defs>
     <path id="m7dd222fb9e" d="M 491.170519 -75.228265 
L 489.829481 -75.228265 
L 489.548936 -78.02404 
L 489.180644 -80.819815 
L 488.709232 -83.61559 
L 488.120813 -86.411365 
L 487.404501 -89.207141 
L 486.553954 -92.002916 
L 485.568773 -94.798691 
L 484.455549 -97.594466 
L 483.228365 -100.390241 
L 481.908628 -103.186016 
L 480.52417 -105.981791 
L 479.107648 -108.777566 
L 477.694365 -111.573341 
L 476.319731 -114.369116 
L 475.016615 -117.164891 
L 473.812894 -119.960666 
L 472.729497 -122.756441 
L 471.779167 -125.552216 
L 470.966133 -128.347991 
L 470.286731 -131.143766 
L 469.730917 -133.939541 
L 469.284455 -136.735316 
L 468.931493 -139.531091 
L 468.657115 -142.326866 
L 468.44952 -145.122641 
L 468.301471 -147.918416 
L 468.210811 -150.714192 
L 468.18 -153.509967 
L 468.214776 -156.305742 
L 468.322208 -159.101517 
L 468.508497 -161.897292 
L 468.776911 -164.693067 
L 469.126214 -167.488842 
L 469.549848 -170.284617 
L 470.035994 -173.080392 
L 470.568511 -175.876167 
L 471.128588 -178.671942 
L 471.696855 -181.467717 
L 472.255633 -184.263492 
L 472.79096 -187.059267 
L 473.294099 -189.855042 
L 473.762299 -192.650817 
L 474.198681 -195.446592 
L 474.611298 -198.242367 
L 475.011507 -201.038142 
L 475.411931 -203.833917 
L 475.824335 -206.629692 
L 476.257754 -209.425467 
L 476.717168 -212.221243 
L 477.202896 -215.017018 
L 477.710776 -217.812793 
L 478.233058 -220.608568 
L 478.759785 -223.404343 
L 479.280409 -226.200118 
L 479.785324 -228.995893 
L 480.267058 -231.791668 
L 480.720959 -234.587443 
L 481.145303 -237.383218 
L 481.540887 -240.178993 
L 481.910287 -242.974768 
L 482.256963 -245.770543 
L 482.584442 -248.566318 
L 482.895731 -251.362093 
L 483.19304 -254.157868 
L 483.477804 -256.953643 
L 483.750915 -259.749418 
L 484.013034 -262.545193 
L 484.264856 -265.340968 
L 484.507244 -268.136743 
L 484.741184 -270.932519 
L 484.967611 -273.728294 
L 485.187176 -276.524069 
L 485.40007 -279.319844 
L 485.605977 -282.115619 
L 485.804223 -284.911394 
L 485.994108 -287.707169 
L 486.175344 -290.502944 
L 486.348509 -293.298719 
L 486.515377 -296.094494 
L 486.679024 -298.890269 
L 486.843646 -301.686044 
L 487.014094 -304.481819 
L 487.195188 -307.277594 
L 487.390937 -310.073369 
L 487.603807 -312.869144 
L 487.834189 -315.664919 
L 488.080166 -318.460694 
L 488.337621 -321.256469 
L 488.60068 -324.052244 
L 488.862394 -326.848019 
L 489.115542 -329.643794 
L 489.353422 -332.43957 
L 489.570512 -335.235345 
L 489.762907 -338.03112 
L 489.928507 -340.826895 
L 490.066968 -343.62267 
L 490.179451 -346.418445 
L 490.268258 -349.21422 
L 490.336414 -352.009995 
L 490.663586 -352.009995 
L 490.663586 -352.009995 
L 490.731742 -349.21422 
L 490.820549 -346.418445 
L 490.933032 -343.62267 
L 491.071493 -340.826895 
L 491.237093 -338.03112 
L 491.429488 -335.235345 
L 491.646578 -332.43957 
L 491.884458 -329.643794 
L 492.137606 -326.848019 
L 492.39932 -324.052244 
L 492.662379 -321.256469 
L 492.919834 -318.460694 
L 493.165811 -315.664919 
L 493.396193 -312.869144 
L 493.609063 -310.073369 
L 493.804812 -307.277594 
L 493.985906 -304.481819 
L 494.156354 -301.686044 
L 494.320976 -298.890269 
L 494.484623 -296.094494 
L 494.651491 -293.298719 
L 494.824656 -290.502944 
L 495.005892 -287.707169 
L 495.195777 -284.911394 
L 495.394023 -282.115619 
L 495.59993 -279.319844 
L 495.812824 -276.524069 
L 496.032389 -273.728294 
L 496.258816 -270.932519 
L 496.492756 -268.136743 
L 496.735144 -265.340968 
L 496.986966 -262.545193 
L 497.249085 -259.749418 
L 497.522196 -256.953643 
L 497.80696 -254.157868 
L 498.104269 -251.362093 
L 498.415558 -248.566318 
L 498.743037 -245.770543 
L 499.089713 -242.974768 
L 499.459113 -240.178993 
L 499.854697 -237.383218 
L 500.279041 -234.587443 
L 500.732942 -231.791668 
L 501.214676 -228.995893 
L 501.719591 -226.200118 
L 502.240215 -223.404343 
L 502.766942 -220.608568 
L 503.289224 -217.812793 
L 503.797104 -215.017018 
L 504.282832 -212.221243 
L 504.742246 -209.425467 
L 505.175665 -206.629692 
L 505.588069 -203.833917 
L 505.988493 -201.038142 
L 506.388702 -198.242367 
L 506.801319 -195.446592 
L 507.237701 -192.650817 
L 507.705901 -189.855042 
L 508.20904 -187.059267 
L 508.744367 -184.263492 
L 509.303145 -181.467717 
L 509.871412 -178.671942 
L 510.431489 -175.876167 
L 510.964006 -173.080392 
L 511.450152 -170.284617 
L 511.873786 -167.488842 
L 512.223089 -164.693067 
L 512.491503 -161.897292 
L 512.677792 -159.101517 
L 512.785224 -156.305742 
L 512.82 -153.509967 
L 512.789189 -150.714192 
L 512.698529 -147.918416 
L 512.55048 -145.122641 
L 512.342885 -142.326866 
L 512.068507 -139.531091 
L 511.715545 -136.735316 
L 511.269083 -133.939541 
L 510.713269 -131.143766 
L 510.033867 -128.347991 
L 509.220833 -125.552216 
L 508.270503 -122.756441 
L 507.187106 -119.960666 
L 505.983385 -117.164891 
L 504.680269 -114.369116 
L 503.305635 -111.573341 
L 501.892352 -108.777566 
L 500.47583 -105.981791 
L 499.091372 -103.186016 
L 497.771635 -100.390241 
L 496.544451 -97.594466 
L 495.431227 -94.798691 
L 494.446046 -92.002916 
L 493.595499 -89.207141 
L 492.879187 -86.411365 
L 492.290768 -83.61559 
L 491.819356 -80.819815 
L 491.451064 -78.02404 
L 491.170519 -75.228265 
z
" style="stroke: #3d3d3d; stroke-width: 1.25"/>
    </defs>
    <g clip-path="url(#pb868054b6b)">
     <use xlink:href="#m7dd222fb9e" x="0" y="432" style="fill: #c5949b; stroke: #3d3d3d; stroke-width: 1.25"/>
    </g>
   </g>
   <g id="line2d_16">
    <path d="M 99.9 322.019094 
L 99.9 114.239906 
" clip-path="url(#pb868054b6b)" style="fill: none; stroke: #3d3d3d; stroke-width: 1.875; stroke-linecap: round"/>
   </g>
   <g id="line2d_17">
    <path d="M 99.9 238.087267 
L 99.9 166.685699 
" clip-path="url(#pb868054b6b)" style="fill: none; stroke: #3d3d3d; stroke-width: 5.625; stroke-linecap: round"/>
   </g>
   <g id="line2d_18">
    <path d="M 99.9 199.452448 
" clip-path="url(#pb868054b6b)" style="fill: none; stroke: #3d3d3d; stroke-width: 1.5; stroke-linecap: round"/>
    <defs>
     <path id="m939fbbb15f" d="M 2.34375 0 
L -2.34375 -0 
" style="stroke: #ffffff; stroke-width: 1.125"/>
    </defs>
    <g clip-path="url(#pb868054b6b)">
     <use xlink:href="#m939fbbb15f" x="99.9" y="199.452448" style="fill: #ffffff; stroke: #ffffff; stroke-width: 1.125"/>
    </g>
   </g>
   <g id="line2d_19">
    <path d="M 155.7 320.981158 
L 155.7 117.721248 
" clip-path="url(#pb868054b6b)" style="fill: none; stroke: #3d3d3d; stroke-width: 1.875; stroke-linecap: round"/>
   </g>
   <g id="line2d_20">
    <path d="M 155.7 266.32031 
L 155.7 197.84243 
" clip-path="url(#pb868054b6b)" style="fill: none; stroke: #3d3d3d; stroke-width: 5.625; stroke-linecap: round"/>
   </g>
   <g id="line2d_21">
    <path d="M 155.7 235.21738 
" clip-path="url(#pb868054b6b)" style="fill: none; stroke: #3d3d3d; stroke-width: 1.5; stroke-linecap: round"/>
    <g clip-path="url(#pb868054b6b)">
     <use xlink:href="#m939fbbb15f" x="155.7" y="235.21738" style="fill: #ffffff; stroke: #ffffff; stroke-width: 1.125"/>
    </g>
   </g>
   <g id="line2d_22">
    <path d="M 211.5 321.736185 
L 211.5 122.07879 
" clip-path="url(#pb868054b6b)" style="fill: none; stroke: #3d3d3d; stroke-width: 1.875; stroke-linecap: round"/>
   </g>
   <g id="line2d_23">
    <path d="M 211.5 263.144983 
L 211.5 193.804845 
" clip-path="url(#pb868054b6b)" style="fill: none; stroke: #3d3d3d; stroke-width: 5.625; stroke-linecap: round"/>
   </g>
   <g id="line2d_24">
    <path d="M 211.5 229.546973 
" clip-path="url(#pb868054b6b)" style="fill: none; stroke: #3d3d3d; stroke-width: 1.5; stroke-linecap: round"/>
    <g clip-path="url(#pb868054b6b)">
     <use xlink:href="#m939fbbb15f" x="211.5" y="229.546973" style="fill: #ffffff; stroke: #ffffff; stroke-width: 1.125"/>
    </g>
   </g>
   <g id="line2d_25">
    <path d="M 267.3 322.109956 
L 267.3 114.210664 
" clip-path="url(#pb868054b6b)" style="fill: none; stroke: #3d3d3d; stroke-width: 1.875; stroke-linecap: round"/>
   </g>
   <g id="line2d_26">
    <path d="M 267.3 266.88873 
L 267.3 200.099051 
" clip-path="url(#pb868054b6b)" style="fill: none; stroke: #3d3d3d; stroke-width: 5.625; stroke-linecap: round"/>
   </g>
   <g id="line2d_27">
    <path d="M 267.3 233.266873 
" clip-path="url(#pb868054b6b)" style="fill: none; stroke: #3d3d3d; stroke-width: 1.5; stroke-linecap: round"/>
    <g clip-path="url(#pb868054b6b)">
     <use xlink:href="#m939fbbb15f" x="267.3" y="233.266873" style="fill: #ffffff; stroke: #ffffff; stroke-width: 1.125"/>
    </g>
   </g>
   <g id="line2d_28">
    <path d="M 323.1 322.086329 
L 323.1 114.213458 
" clip-path="url(#pb868054b6b)" style="fill: none; stroke: #3d3d3d; stroke-width: 1.875; stroke-linecap: round"/>
   </g>
   <g id="line2d_29">
    <path d="M 323.1 240.789411 
L 323.1 161.483226 
" clip-path="url(#pb868054b6b)" style="fill: none; stroke: #3d3d3d; stroke-width: 5.625; stroke-linecap: round"/>
   </g>
   <g id="line2d_30">
    <path d="M 323.1 201.627332 
" clip-path="url(#pb868054b6b)" style="fill: none; stroke: #3d3d3d; stroke-width: 1.5; stroke-linecap: round"/>
    <g clip-path="url(#pb868054b6b)">
     <use xlink:href="#m939fbbb15f" x="323.1" y="201.627332" style="fill: #ffffff; stroke: #ffffff; stroke-width: 1.125"/>
    </g>
   </g>
   <g id="line2d_31">
    <path d="M 378.9 322.097891 
L 378.9 114.210009 
" clip-path="url(#pb868054b6b)" style="fill: none; stroke: #3d3d3d; stroke-width: 1.875; stroke-linecap: round"/>
   </g>
   <g id="line2d_32">
    <path d="M 378.9 255.20616 
L 378.9 175.921994 
" clip-path="url(#pb868054b6b)" style="fill: none; stroke: #3d3d3d; stroke-width: 5.625; stroke-linecap: round"/>
   </g>
   <g id="line2d_33">
    <path d="M 378.9 212.964099 
" clip-path="url(#pb868054b6b)" style="fill: none; stroke: #3d3d3d; stroke-width: 1.5; stroke-linecap: round"/>
    <g clip-path="url(#pb868054b6b)">
     <use xlink:href="#m939fbbb15f" x="378.9" y="212.964099" style="fill: #ffffff; stroke: #ffffff; stroke-width: 1.125"/>
    </g>
   </g>
   <g id="line2d_34">
    <path d="M 434.7 322.097492 
L 434.7 116.040443 
" clip-path="url(#pb868054b6b)" style="fill: none; stroke: #3d3d3d; stroke-width: 1.875; stroke-linecap: round"/>
   </g>
   <g id="line2d_35">
    <path d="M 434.7 265.904522 
L 434.7 199.679205 
" clip-path="url(#pb868054b6b)" style="fill: none; stroke: #3d3d3d; stroke-width: 5.625; stroke-linecap: round"/>
   </g>
   <g id="line2d_36">
    <path d="M 434.7 234.821408 
" clip-path="url(#pb868054b6b)" style="fill: none; stroke: #3d3d3d; stroke-width: 1.5; stroke-linecap: round"/>
    <g clip-path="url(#pb868054b6b)">
     <use xlink:href="#m939fbbb15f" x="434.7" y="234.821408" style="fill: #ffffff; stroke: #ffffff; stroke-width: 1.125"/>
    </g>
   </g>
   <g id="line2d_37">
    <path d="M 490.5 322.10952 
L 490.5 114.65222 
" clip-path="url(#pb868054b6b)" style="fill: none; stroke: #3d3d3d; stroke-width: 1.875; stroke-linecap: round"/>
   </g>
   <g id="line2d_38">
    <path d="M 490.5 292.897486 
L 490.5 219.242899 
" clip-path="url(#pb868054b6b)" style="fill: none; stroke: #3d3d3d; stroke-width: 5.625; stroke-linecap: round"/>
   </g>
   <g id="line2d_39">
    <path d="M 490.5 259.760328 
" clip-path="url(#pb868054b6b)" style="fill: none; stroke: #3d3d3d; stroke-width: 1.5; stroke-linecap: round"/>
    <g clip-path="url(#pb868054b6b)">
     <use xlink:href="#m939fbbb15f" x="490.5" y="259.760328" style="fill: #ffffff; stroke: #ffffff; stroke-width: 1.125"/>
    </g>
   </g>
   <g id="patch_3">
    <path d="M 72 384.48 
L 72 51.84 
" style="fill: none; stroke: #262626; stroke-width: 0.8; stroke-linejoin: miter; stroke-linecap: square"/>
   </g>
   <g id="patch_4">
    <path d="M 518.4 384.48 
L 518.4 51.84 
" style="fill: none; stroke: #262626; stroke-width: 0.8; stroke-linejoin: miter; stroke-linecap: square"/>
   </g>
   <g id="patch_5">
    <path d="M 72 384.48 
L 518.4 384.48 
" style="fill: none; stroke: #262626; stroke-width: 0.8; stroke-linejoin: miter; stroke-linecap: square"/>
   </g>
   <g id="patch_6">
    <path d="M 72 51.84 
L 518.4 51.84 
" style="fill: none; stroke: #262626; stroke-width: 0.8; stroke-linejoin: miter; stroke-linecap: square"/>
   </g>
   <g id="text_18">
    <text style="fill: #262626; font: 12px 'Arial', 'DejaVu Sans', 'Liberation Sans', 'Bitstream Vera Sans', sans-serif; text-anchor: middle" x="295.2" y="45.84" transform="rotate(-0 295.2 45.84)">sA-&gt;sB -&gt; sB-&gt;sBmid</text>
   </g>
  </g>
 </g>
 <defs>
  <clipPath id="pb868054b6b">
   <rect x="72" y="51.84" width="446.4" height="332.64"/>
  </clipPath>
 </defs>
</svg>
